<svg xmlns="http://www.w3.org/2000/svg" id="Layer_1" viewBox="0 0 461.2 461.2"><defs><style>      .st0 {        fill: #efeded;      }    </style></defs><path id="Path_625" class="st0" d="M369.4,420.4c.7-2.3,2-4.3,3.7-6,1.7-1.6,3.7-2.8,5.9-3.6.7-.3,1.3-.5,1.8-.6l.8-.3c1.7-.6,3.4-1.4,4.9-2.4,1.5-1,2.9-2.3,4-3.7.3-.4.7-.8,1.1-1.3.3-.3.7-.7,1.1-1.3,1.2-1.3,2.5-2.4,3.9-3.5,1.4-1,3-1.8,4.6-2.5,2.5-1.1,5.3-1.4,8.1-1,2.7.5,5.2,1.8,7.3,3.7,2.3,2,4.1,4.4,5.4,7,1.2,2.7,1.8,5.6,1.8,8.5,0,1.6,0,3.1.2,4.7.1,1.5.5,3,1,4.4.6,1.6,1.3,3.2,2,4.8h0c.7,1.6,1.2,3.3,1.4,5,.2,1.7,0,3.5-.4,5.2-.6,2.4-1.8,4.7-3.3,6.6-1.6,1.9-3.5,3.4-5.8,4.5-1,.5-2.1.8-3.3.9-1.1,0-2.2,0-3.3,0-1.5-.1-3-.5-4.3-1.2-1.3-.7-2.5-1.5-3.5-2.5-.7-.6-1.4-1.2-2.2-1.9l-1.4-1.2c-1.3-1.1-2.8-2-4.4-2.6-1.7-.6-3.5-.9-5.3-.9-1.1,0-2.2,0-3.2.1-1.1,0-2.1.3-3.1.6-.4.1-.9.2-1.3.3-3.2.6-6.6-.1-9.3-2-2.6-1.8-4.4-4.3-5.3-7.3,0-.4-.2-.8-.3-1.2-.6-3.2-.4-6.5.7-9.6h0ZM452.4,287.3c.6-12.3-3.4-20-9.2-23.5-3.7-2.2-8.2-2.8-12.4-1.7-4.9,1.3-9.2,4.1-12.5,7.9-8.2,9.4-12.5,26.4-4.5,49.9l.5,1.4c.7,2,1,3,1.5,3.5.5.5,1.5.8,3.4,1.4l1.5.5c17.4,5.6,30.8,6.3,40.4,4.2v2.2c-9.9,2-23.6,1.3-41.1-4.3l-1.5-.5c-2.3-.7-3.4-1.1-4.3-2-.9-.9-1.3-2-2.1-4.4l-.5-1.4c-8.3-24.3-3.7-42.1,4.9-52,3.9-4.5,8.7-7.4,13.6-8.6,4.7-1.2,9.8-.5,14,1.9,6.4,3.9,10.9,12.2,10.2,25.5,0,1.4-.2,2.4-.2,3.1-.1,1.2-.2,1.6-.2,1.7,0,0,.4,0,1.1,0,1.6,0,3.2.2,4.8.5.4,0,.8.1,1.1.2v2.2c-.5,0-1-.2-1.5-.3-1.5-.3-3-.4-4.5-.5-1.3,0-2,0-2.5-.7-.7-.7-.6-1.5-.5-3.4,0-.8.2-1.9.2-3.1h0ZM442.7,134.5c.7-2.3,2-4.3,3.7-6,1.7-1.6,3.7-2.8,5.9-3.6.7-.3,1.2-.5,1.8-.6l.8-.3c1.7-.6,3.4-1.4,4.9-2.4.5-.3,1-.7,1.4-1v2.7h-.2c-1.7,1.3-3.5,2.1-5.4,2.8l-.8.3c-.6.2-1.2.4-1.7.6-1.9.7-3.7,1.8-5.2,3.1-1.5,1.4-2.5,3.2-3.1,5.1h0c-.4,1.4-.7,2.8-.8,4.2-.1,1.4,0,2.9.3,4.3,0,.3.1.7.2,1,.7,2.5,2.3,4.7,4.4,6.1,2.2,1.5,5,2.1,7.7,1.6.4,0,.7-.2,1.1-.3,1.1-.3,2.3-.5,3.5-.7h.1v2.2c-1,0-2.1.3-3.1.6-.4.1-.9.2-1.3.3-3.2.6-6.6-.1-9.3-2-2.6-1.8-4.4-4.3-5.3-7.3-.1-.4-.2-.8-.3-1.2-.6-3.2-.4-6.5.6-9.6h0ZM438.4,99.6c.1-.3.3-.6.5-.9.5-1,1-2,1.6-2.9.5-.8,1.1-1.5,1.8-2.1,1.5-1.3,3.4-2.1,5.4-2.4,2.1-.2,4.3.3,6.1,1.6.8.6,1.5,1.2,2.2,2,.5.6.9,1.2,1.3,1.8.4.6.8,1.3,1,2,1,2.4,1.6,4.9,1.8,7.4.3,2.6,0,5.2-.7,7.7-1.1,3.7-3,6.2-5.4,7.5-2.6,1.5-5.8,1.6-9.2.7-1.3-.3-2.4-1-3.4-1.9-1-1-1.8-2.2-2.4-3.5-1.2-2.6-1.9-5.3-2-8.2,0-2.9.3-5.9,1.2-8.7h0c0-.1,0-.2,0-.2h0ZM440.9,99.6l-.5.9c-.8,2.6-1.1,5.2-1.1,7.9.1,2.5.7,5,1.8,7.4.5,1,1.1,2,1.9,2.8.7.7,1.5,1.1,2.5,1.4,2.8.7,5.5.7,7.6-.5,1.9-1.1,3.4-3.1,4.4-6.3.6-2.2.9-4.6.6-6.9-.3-2.3-.8-4.6-1.7-6.8-.2-.6-.5-1.1-.8-1.6-.4-.5-.7-1.1-1.2-1.6-.5-.6-1.1-1.1-1.8-1.6-1.3-.9-3-1.4-4.6-1.2-1.6.2-3,.8-4.2,1.9-.6.5-1.1,1-1.5,1.6-.5.9-1,1.7-1.5,2.7h0ZM424.4,0c-.3,2.1-.2,4.3.3,6.4,1,4.4,3.6,8.9,7.7,12.6,6.2,5.7,16,9.6,28.9,9.3v2.2c-13.5.4-23.8-3.8-30.4-9.8-4.1-3.6-7.1-8.4-8.3-13.8-.5-2.3-.6-4.6-.3-6.9h2.2ZM450.3,446.6c-12.3-.8-20.1,3-23.7,8.7-1.1,1.8-1.9,3.8-2.2,5.9h-2.2c.3-2.5,1.2-4.9,2.5-7,4-6.3,12.4-10.6,25.7-9.7,1.3,0,2.3.2,3.1.3,1.2.1,1.6.2,1.7.2,0,0,0-.4,0-1.1.4-6.4,2.4-12.5,5.9-17.9v4.1c-1.5,2.9-2.6,6.1-3.2,9.4-.3,1.5-.5,3-.6,4.5,0,1.3-.1,2-.7,2.5-.7.7-1.5.6-3.4.4-.8,0-1.8-.2-3.1-.3h0ZM0,426c2.4-3.5,5.9-6.2,9.9-7.6,3.5-1.2,7.3-1.2,10.8,0,3.8,1.4,7.1,4,9.3,7.4,4.9,7.1,7.5,18.8,4.7,35.4h-2.2c2.8-16.1.4-27.4-4.3-34.1-2-3-4.9-5.3-8.3-6.6-3-1.1-6.3-1.1-9.3,0-4.1,1.4-7.9,4.6-10.6,9.7v-4.1h0ZM0,28.3c7.1-.3,14.1-1.5,20.9-3.8l1.4-.4c2-.6,3-.9,3.6-1.5.5-.5.8-1.5,1.5-3.4l.5-1.5C29.8,12,31.4,6,32.5,0h2.2c-1.1,6.3-2.7,12.5-4.8,18.5l-.5,1.5c-.7,2.3-1.1,3.4-2,4.2-.9.9-2.1,1.3-4.4,2l-1.4.4c-7,2.3-14.2,3.6-21.5,3.9v-2.2ZM295.7,0c-7.6,4.1-15.7,8.8-17.3,9.9h0c0,.2,0,.3,0,.5.5,1.6.7,3.3.7,4.9,0,1.7-.4,3.3-1.1,4.8-2.1,5.1-6.7,8.6-12.2,9.3-2.3.3-4.6,0-6.8-.6-2.2-.7-4.2-1.9-5.8-3.5-3.3-3.4-5.1-8.7-3.3-15.8.1-.5.2-.6.2-.7,0,0-.3,0-.8,0-1.8-.2-3.5-.8-5.1-1.7-1.6-.9-3-2.1-4.1-3.6-.9-1.1-1.6-2.3-2.2-3.5h2.4c.4.8.9,1.5,1.5,2.2,1,1.2,2.2,2.3,3.5,3,1.3.7,2.8,1.2,4.3,1.4,1.1.1,1.8.3,2.3.9s.4,1.3.1,2.4c-1.5,6.3,0,10.9,2.7,13.8,1.4,1.4,3.1,2.4,4.9,3,1.9.6,3.9.7,5.8.5,4.7-.6,8.7-3.6,10.5-8,.6-1.3.9-2.6.9-4,0-1.4-.1-2.9-.6-4.2-.2-.5-.2-1-.1-1.5,0-.6.4-1.1.9-1.4,1.4-1,7.5-4.5,14-8.1h4.5ZM0,330.9c4.1-.8,8-2.5,11.5-4.9,3-2,5.2-5,6.5-8.4,1-3,1-6.3-.1-9.4-2.1-5.9-8.1-11.1-17.8-13.1v-2.2c10.7,2.1,17.4,8,19.8,14.6,1.3,3.5,1.3,7.3.2,10.8-1.4,3.8-3.9,7.1-7.2,9.5-3.8,2.6-8.2,4.4-12.7,5.3v-2.2ZM0,120.6c1-.8,1.8-1.7,2.6-2.6.3-.4.7-.8,1.1-1.3.3-.3.7-.7,1.1-1.3,1.2-1.3,2.5-2.5,3.9-3.5,1.4-1,3-1.8,4.6-2.5,2.5-1.1,5.3-1.4,8.1-1,2.7.5,5.2,1.8,7.3,3.7,2.3,1.9,4.1,4.3,5.4,7,1.2,2.7,1.8,5.6,1.8,8.5,0,1.6,0,3.1.2,4.7.1,1.5.5,3,1,4.4.6,1.6,1.3,3.2,2,4.8h0c.7,1.6,1.2,3.3,1.4,5,.2,1.8,0,3.5-.4,5.2-.6,2.4-1.8,4.7-3.3,6.6-1.6,1.9-3.5,3.4-5.8,4.5-1,.5-2.1.8-3.3.9-1.1,0-2.2,0-3.3,0-1.5-.1-3-.5-4.3-1.2-1.3-.7-2.5-1.5-3.5-2.5-.7-.6-1.4-1.2-2.2-1.9l-1.4-1.2c-1.3-1.1-2.8-2-4.4-2.6-1.7-.6-3.5-.9-5.3-.9-1.1,0-2.2,0-3.2.1h0v-2.2c1.1-.1,2.2-.2,3.3-.1,2,0,4.1.3,6,1,1.9.7,3.6,1.7,5.1,3l1.4,1.2c.7.6,1.5,1.2,2.3,2,.9.9,1.9,1.6,3.1,2.2,1.1.6,2.3.9,3.5,1,1,0,1.9,0,2.9,0,.9,0,1.7-.3,2.5-.7,1.9-.9,3.7-2.3,5-3.9,1.4-1.7,2.4-3.7,2.9-5.8.4-1.4.5-2.9.4-4.4-.2-1.5-.6-3-1.2-4.4h0c-.7-1.7-1.4-3.3-2-5-.6-1.6-.9-3.3-1.1-4.9-.2-1.6-.2-3.3-.2-4.9,0-2.6-.5-5.2-1.6-7.6-1.2-2.4-2.8-4.6-4.8-6.3-1.7-1.6-3.9-2.7-6.2-3.2-2.3-.4-4.7,0-6.9.8-1.5.6-2.9,1.3-4.2,2.3-1.3.9-2.5,2-3.6,3.1-.3.3-.6.7-1.1,1.2-.3.4-.7.8-1.1,1.3-1.2,1.5-2.7,2.8-4.3,3.9v-2.7h0ZM63.2,125.3c-.4,1-.9,1.9-1.5,2.7-.6.8-1.2,1.6-1.9,2.3-1.1,1.2-2.4,2.3-3.7,3.2-1.3,1-2.8,1.8-4.3,2.4-2,.9-4.3,1-6.4.3-2.1-.8-3.8-2.3-4.9-4.2-1-1.7-1.6-3.6-1.7-5.6,0-2,.5-4,1.6-5.7,1-1.7,2.2-3.3,3.6-4.8,1.4-1.5,3-2.7,4.7-3.7.8-.4,1.6-.8,2.4-1.1.8-.3,1.6-.5,2.4-.7,0,0,.2,0,.2,0,2.2-.4,4.6,0,6.4,1.4,1.9,1.3,3.1,3.3,3.6,5.6v.2c.3,1.3.3,2.5.2,3.8-.1,1.3-.4,2.5-.7,3.8h0ZM60,126.8c.5-.7.9-1.4,1.2-2.2.3-1.1.6-2.1.7-3.3,0-1.1,0-2.2-.2-3.3v-.2c-.3-1.7-1.3-3.2-2.7-4.2-1.4-1-3.1-1.3-4.8-1h-.2c-.7.2-1.4.4-2.1.7-.7.3-1.4.6-2.1,1-1.6.9-3,2-4.2,3.3-1.3,1.3-2.4,2.8-3.3,4.4-.9,1.3-1.3,2.9-1.3,4.5,0,1.6.6,3.2,1.4,4.5,1.6,3.2,5.4,4.5,8.6,2.9,1.4-.6,2.7-1.3,3.9-2.2,1.2-.9,2.4-1.9,3.4-3,.6-.6,1.2-1.3,1.7-2h0ZM22.1,96.2c-.2,1-.5,2-.8,2.9-.4.9-.8,1.8-1.4,2.6-.5.7-1,1.3-1.7,1.9-.7.6-1.4,1.1-2.2,1.5-.7.4-1.5.7-2.3.9-2.2.5-4.4.3-6.5-.4-2.3-.8-4.1-2.4-5.3-4.5-.5-.8-.8-1.7-1-2.6-1.5-6.1-.2-12.5,3.6-17.5,1.1-1.6,2.7-2.8,4.5-3.5,1.9-.7,3.9-.8,5.8-.4,1.8.3,3.5,1,4.9,2.2,1.3,1.1,2.3,2.6,2.8,4.2.3,1,.5,1.9.6,2.9.1,1,.1,2.1,0,3.1-.2,2-.5,4-.8,6v.7c-.1,0-.1,0-.1,0ZM19.3,98.3c.3-.8.6-1.6.7-2.5v-.7c.5-1.9.8-3.9.9-5.8,0-.9,0-1.8,0-2.7,0-.8-.2-1.7-.5-2.5-.4-1.3-1.1-2.4-2.1-3.2-1.1-.9-2.5-1.5-3.9-1.7-1.5-.3-3.1-.2-4.6.3-1.4.6-2.6,1.5-3.5,2.7-3.4,4.5-4.6,10.3-3.3,15.7.2.7.4,1.4.8,2.1.9,1.6,2.4,2.9,4.1,3.5,1.7.6,3.5.7,5.2.3.6-.1,1.2-.4,1.8-.7.6-.3,1.2-.7,1.7-1.2.5-.5,1-1,1.4-1.5.5-.7.9-1.4,1.2-2.1ZM27.8,96.3c.7-1.9,1.7-3.7,2.8-5.3,1.1-1.7,2.6-3.2,4.2-4.5,1.8-1.4,4.1-2.2,6.4-2.2,2.3,0,4.6.7,6.6,2,1.2.8,2.2,1.9,2.8,3.2.6,1.2,1,2.5,1.1,3.9.2,1.4.1,2.7-.1,4.1-.3,1.3-.7,2.6-1.3,3.8-.7,1.6-1.6,3.2-2.6,4.6-1,1.5-2.2,2.9-3.5,4.1-1.5,1.5-3.4,2.5-5.5,2.9-2.1.3-4.2,0-6.1-1-2-1-3.6-2.7-4.7-4.6-1-2-1.4-4.2-1.1-6.4.2-1.1.4-2.1.7-3l.3-1.4h0c0,0,0,0,0,0ZM32.4,92.1c-1,1.5-1.8,3.2-2.5,4.9l-.3,1.3c-.3,1-.5,1.9-.7,2.8-.3,1.7,0,3.5.9,5,.8,1.6,2.1,2.9,3.7,3.7,1.5.8,3.1,1.1,4.8.8,1.7-.3,3.2-1.1,4.4-2.3,1.2-1.1,2.2-2.4,3.2-3.8.9-1.4,1.7-2.8,2.4-4.3.5-1.1.9-2.2,1.1-3.3.2-1.1.3-2.3.1-3.4-.1-1.1-.4-2.2-.9-3.2-.5-.9-1.2-1.7-2-2.3-1.6-1.1-3.5-1.6-5.4-1.7-1.8,0-3.6.7-5.1,1.8-1.4,1.1-2.7,2.4-3.7,3.9h0ZM71.4,40.7c1.3.2,1.8-1.1,2.2-2.5l.2-.6c1.7-4.7,3.6-9.2,5.7-13.7,2.1-4.5,4.4-8.9,6.7-13.2.3-.4.5-.9.5-1.4-.1-.5-.4-1-.8-1.3l-.4-.5c-.6-.6-1.1-1.3-1.6-2-1.1-1.7-1.9-3.5-2.4-5.4h2.3c.5,1.5,1.1,2.9,2,4.2.4.6.8,1.1,1.3,1.7l.4.5c.7.7,1.2,1.5,1.3,2.5,0,1-.2,1.9-.7,2.7-2.3,4.3-4.5,8.7-6.6,13.1-2.1,4.4-4,8.9-5.6,13.5l-.2.6c-.7,2.2-1.4,4.3-4.5,4-6.4-.7-10.7,1.2-13.2,4.2-1.2,1.5-2,3.3-2.3,5.2-.3,1.9-.2,3.9.3,5.8,1.2,4.2,4.5,8.1,9.9,9.6,1.5.4,3.1.6,4.6.5,1.5-.2,3-.6,4.3-1.3,1-.6,1.7-.8,2.4-.5.7.3,1.1.8,1.5,1.9,2.3,6,6.2,9,10.1,9.7,1.9.3,3.9.2,5.7-.4,1.9-.6,3.6-1.6,5.1-2.9,3.5-3.1,5-7.9,4-12.5-.3-1.4-.8-2.7-1.6-3.8-.8-1.2-1.7-2.2-2.9-3.1-.4-.3-.7-.7-1-1.1-.2-.5-.3-1.2,0-1.7.8-2.1,5.8-12.8,10.1-21.2,3-5.9,5.7-10.7,6.8-11.1.4-.1.7-.2,1.1-.2.4,0,.8,0,1.2,0,1.1.2,2.3.2,3.4,0,1.1-.2,2.2-.7,3.2-1.2,5.3-3.2,7.4-7.5,7.5-11.7,0-2-.5-4-1.4-5.9-.2-.4-.4-.7-.5-1h2.5c1,2.2,1.6,4.5,1.6,6.9,0,4.8-2.5,9.9-8.5,13.5h0c-1.2.7-2.5,1.2-3.9,1.5-1.4.3-2.8.3-4.2,0-.2,0-.5,0-.7,0-.2,0-.3,0-.5,0h0c-.4.1-2.8,4.5-5.5,10-4.2,8.3-9.2,18.9-10,21h0c0,.2.2.3.3.4,1.3,1,2.5,2.3,3.4,3.7.9,1.4,1.5,2.9,1.9,4.6,1.2,5.3-.6,10.9-4.7,14.6-1.7,1.5-3.7,2.7-5.9,3.4-2.2.7-4.5.9-6.8.5-4.7-.8-9.1-4.2-11.8-11-.2-.5-.2-.7-.2-.7-.2.1-.4.3-.7.4-1.6.9-3.3,1.4-5.1,1.6-1.8.2-3.7,0-5.4-.5-6.2-1.8-10-6.2-11.4-11.1-.6-2.2-.7-4.5-.3-6.8.4-2.2,1.4-4.4,2.8-6.1,2.9-3.6,8-5.9,15.2-5.1h0ZM261.9,444.6c1,.9,2.1,0,3.3-.8l.5-.4c4-2.9,8.2-5.5,12.6-7.9,4.3-2.4,8.7-4.7,13-7,.7-.4,1.1-.6,1.2-.9.2-.5.2-1,0-1.5v-.6c-.2-.8-.3-1.7-.2-2.5.5-8.4,5.3-13.7,11-15.9,2.7-1.1,5.6-1.4,8.4-.9,2.8.4,5.3,1.8,7.2,3.8,3.3,3.6,4.6,9.8,1.5,18.4,0,.3-.3.2-.2.3s0,0,.3,0h0c1.1.2,2.3.4,3.4.7,5,1.2,8.9,5.1,10.2,10,.6,2.3.8,4.6.4,6.9-.4,2.4-1.3,4.6-2.6,6.5-2.8,3.9-7.7,6.6-14.7,6.2h0c-1.4-.1-2.7-.4-4-1-1.3-.6-2.5-1.4-3.4-2.4-.2-.2-.4-.3-.6-.4-.1,0-.3-.2-.4-.2h0c-.4-.1-4.9,2.1-10.3,5-.9.5-1.9,1-2.9,1.5h-4.5c2.1-1.2,4.4-2.4,6.4-3.5,5.8-3.1,10.8-5.4,11.8-5.2.4.1.7.3,1,.5.3.2.6.5.9.7.8.8,1.7,1.5,2.8,1.9,1.1.5,2.2.7,3.3.8,6.2.4,10.4-1.9,12.8-5.3,1.2-1.7,1.9-3.6,2.3-5.6.3-2,.2-4.1-.4-6-1.1-4.2-4.4-7.5-8.6-8.5-1.1-.3-2.1-.5-3.2-.6h0c-.9-.2-1.5-.4-1.8-1s-.3-1.2,0-2.1c2.8-7.8,1.8-13.1-1-16.2-1.6-1.7-3.7-2.8-6-3.1-2.5-.4-5-.1-7.3.8-5,1.9-9.2,6.6-9.6,14,0,.7,0,1.4.2,2.1v.6c.6,2-.5,4-2.4,4.7-4.3,2.2-8.7,4.5-13,6.9-4.3,2.4-8.4,5-12.4,7.8l-.5.4c-1.9,1.4-3.7,2.7-6,.7-4.8-4.2-9.5-5.2-13.3-4.1-1.8.5-3.5,1.5-4.9,2.9-1.4,1.4-2.4,3.1-3.1,4.9-1.3,3.8-.9,7.9,1.1,11.4h-2.4c-1.8-3.8-2.1-8.1-.7-12.1.8-2.2,2-4.1,3.6-5.7,1.6-1.6,3.6-2.8,5.8-3.4,4.5-1.3,9.9-.2,15.3,4.6h0ZM387.8,29.8c-.6,1.2.5,2.1,1.7,2.9l.5.4c3.9,3.1,7.6,6.4,11.1,9.9,3.5,3.4,6.9,7,10.3,10.6.3.4.7.7,1.2.9.5,0,1,0,1.5-.3l.6-.3c.8-.3,1.6-.6,2.4-.8,8.2-1.9,14.7,1.3,18.4,6.1,1.8,2.3,2.9,5,3.3,7.9.4,2.8-.2,5.6-1.6,8-2.6,4.2-8.1,7.2-17.3,6.5-.3,0-.2-.2-.3-.1s.1,0,.1.3h0c.1,1.1.3,2.3.3,3.5.2,5.1-2.4,9.9-6.8,12.6-2,1.2-4.2,2-6.6,2.3-2.4.3-4.7,0-7-.7-4.6-1.6-8.5-5.6-10-12.4h0c-.3-1.4-.4-2.8-.2-4.1.2-1.4.6-2.7,1.3-4,.1-.2.2-.4.3-.7,0-.2,0-.3,0-.5,0-.4-3.4-4.1-7.7-8.5-6.5-6.7-14.9-14.8-16.6-16.2h0c-.1,0-.3,0-.4.2-1.4.9-2.9,1.6-4.6,2-1.6.4-3.3.5-4.9.3-5.5-.6-10.2-4.1-12.3-9.1-.9-2.1-1.4-4.4-1.3-6.7,0-2.3.6-4.6,1.8-6.6,2.3-4.1,6.9-7.3,14.3-7.6.2,0,.5,0,.7,0,0,0,0-.2-.2-.7-.3-1.8-.2-3.6.2-5.4.4-1.8,1.2-3.5,2.3-5,3.7-5.3,9.1-7.4,14.2-7.2,2.3.1,4.5.8,6.5,1.9,2,1.1,3.7,2.7,4.9,4.6,2.4,3.9,3,9.5-.1,16h0ZM388.2,34.4c-1.9-1.4-3.6-2.8-2.3-5.6,2.7-5.8,2.3-10.5.2-13.9-1-1.6-2.4-3-4.1-3.9-1.7-.9-3.6-1.5-5.6-1.6-4.4-.2-9.1,1.7-12.3,6.2-.9,1.3-1.6,2.7-1.9,4.2-.4,1.5-.4,3-.1,4.5.2,1.1.2,1.9-.3,2.4-.5.6-1.2.8-2.3.8-6.4.3-10.5,2.9-12.4,6.5-.9,1.7-1.5,3.6-1.5,5.5,0,2,.4,3.9,1.1,5.7,1.8,4.3,5.9,7.3,10.6,7.8,1.4.2,2.8.1,4.1-.2,1.4-.3,2.7-.9,3.9-1.7.4-.3.9-.5,1.4-.5.6,0,1.2.1,1.7.5,1.8,1.4,10.3,9.7,16.8,16.4,4.6,4.7,8.2,8.9,8.3,9.9,0,.4,0,.8-.2,1.1-.1.4-.3.8-.5,1.1-.6,1-.9,2.1-1.1,3.2-.1,1.1-.1,2.3.1,3.4,1.3,6,4.7,9.5,8.6,10.9,1.9.7,4,.9,6,.6,2-.2,4-.9,5.7-2,3.7-2.3,5.9-6.4,5.7-10.7,0-1-.2-2.1-.3-3.3h0c-.1-.9,0-1.6.4-2.1s1.1-.6,2-.5c8.2.6,13.1-1.9,15.3-5.5,1.2-2,1.6-4.3,1.3-6.6-.3-2.5-1.3-4.8-2.8-6.8-3.2-4.2-8.9-7-16.1-5.3-.7.2-1.3.4-2,.7l-.6.3c-.9.4-1.8.6-2.8.5-.9-.3-1.8-.8-2.4-1.5-3.3-3.5-6.7-7.1-10.3-10.5-3.5-3.4-7.1-6.7-11-9.7l-.5-.4h0ZM297.8,65.3c.6-12.3-3.4-20-9.2-23.5-3.7-2.2-8.2-2.8-12.4-1.7-4.4,1-8.8,3.7-12.5,7.9-8.2,9.4-12.5,26.4-4.5,49.9l.5,1.4c.7,2,1,3,1.5,3.5.5.5,1.5.8,3.4,1.4l1.5.5c26,8.3,43,5.8,51.9-.6,3-2.1,5.2-5,6.5-8.4,1-3,1-6.3-.1-9.3-2.3-6.2-8.8-11.6-19.3-13.4-1.5-.3-3-.4-4.5-.5-1.3,0-2,0-2.6-.7-.7-.7-.6-1.5-.5-3.4,0-.8.2-1.9.2-3.1h0ZM289.8,39.9c6.4,3.9,10.9,12.2,10.2,25.5,0,1.4-.1,2.4-.2,3.1,0,1.2-.2,1.7-.2,1.7,0,0,.4,0,1.1,0,1.6,0,3.2.2,4.8.5,11.4,2,18.5,8,21,14.8,1.3,3.5,1.3,7.3.2,10.8-1.4,3.8-3.9,7.1-7.2,9.5-9.3,6.8-27.1,9.5-53.9.9l-1.5-.5c-2.3-.7-3.4-1-4.3-1.9-.9-.9-1.3-2.1-2.1-4.4l-.5-1.4c-8.3-24.4-3.7-42.1,4.9-52,3.5-4.2,8.3-7.2,13.6-8.6,4.7-1.2,9.8-.5,14,1.9h0ZM165.8,401.4c-8.4-9.1-16.7-11.6-23.2-10-4.2,1.1-7.7,3.9-9.9,7.6-2.5,4.4-3.6,9.4-3.1,14.5.9,12.4,10,27.4,32.4,38.2l1.3.6c1.9.9,2.8,1.4,3.6,1.4.7,0,1.6-.5,3.4-1.4l1.4-.7c24.2-12.7,34.3-26.6,36-37.4.6-3.6.1-7.2-1.4-10.5-1.4-2.9-3.8-5.1-6.8-6.5-6-2.7-14.4-1.9-23.1,4.3-1.2.9-2.4,1.9-3.5,2.9-.9.9-1.5,1.3-2.3,1.4h0c-.9,0-1.5-.7-2.7-2.1-.5-.6-1.1-1.4-2-2.3h0ZM142,389.3c7.2-1.9,16.3.8,25.3,10.6.9,1,1.6,1.8,2.1,2.4.8.9,1,1.3,1.1,1.3,0,0,.3-.3.8-.8,1.2-1.1,2.4-2.1,3.7-3.1,9.4-6.8,18.7-7.6,25.3-4.5,3.4,1.5,6.1,4.1,7.8,7.4,1.8,3.7,2.3,7.8,1.7,11.8-1.7,11.4-12.2,26-37.1,39l-1.4.7c-2.1,1.1-3.2,1.7-4.4,1.7-1.3,0-2.4-.5-4.6-1.6l-1.3-.6c-23.2-11.2-32.6-26.9-33.6-40-.5-5.5.7-11,3.4-15.7,2.4-4.2,6.5-7.3,11.2-8.6h0ZM153.4,74.3c.7-2.3,2-4.3,3.7-6,1.7-1.6,3.7-2.8,5.9-3.6.7-.3,1.2-.4,1.8-.6l.8-.3c1.7-.6,3.4-1.4,4.9-2.4,1.5-1,2.9-2.2,4-3.7.3-.4.7-.8,1.1-1.3.3-.3.7-.7,1.1-1.3,1.2-1.3,2.5-2.5,3.9-3.5,1.4-1,3-1.8,4.6-2.5,2.5-1.1,5.3-1.4,8.1-1,2.7.5,5.3,1.8,7.3,3.7,2.3,1.9,4.1,4.3,5.3,7,1.2,2.7,1.8,5.6,1.8,8.5,0,1.6,0,3.1.2,4.7.2,1.5.5,3,1,4.4.6,1.6,1.3,3.2,2,4.8h0c.7,1.6,1.2,3.3,1.4,5,.2,1.8,0,3.5-.4,5.2-.6,2.4-1.8,4.6-3.4,6.6-1.6,1.9-3.5,3.4-5.8,4.5-1,.5-2.1.8-3.3.9-1.1,0-2.2,0-3.3,0-1.5-.1-3-.5-4.3-1.2-1.3-.7-2.5-1.5-3.5-2.5-.7-.6-1.4-1.2-2.2-1.9l-1.4-1.2c-1.3-1.1-2.8-2-4.4-2.6-1.7-.6-3.5-.9-5.3-.9-1.1,0-2.2,0-3.2.1-1.1,0-2.1.3-3.1.6-.4.1-.9.2-1.3.3-3.2.6-6.6,0-9.3-2-2.6-1.8-4.4-4.4-5.3-7.3-.1-.4-.2-.8-.3-1.2-.3-1.6-.4-3.2-.3-4.9.1-1.6.4-3.2.9-4.7h0ZM158.6,69.9c-1.5,1.4-2.5,3.1-3.1,5.1h0c-.4,1.4-.7,2.8-.8,4.2-.1,1.4,0,2.9.3,4.3,0,.3.1.7.2,1,.7,2.5,2.3,4.7,4.4,6.1,2.2,1.5,5,2.1,7.7,1.6.4,0,.7-.1,1.1-.3,1.1-.3,2.3-.5,3.5-.6,1.2-.1,2.3-.2,3.5-.2,2,0,4.1.3,6,1,1.9.7,3.6,1.7,5.1,3l1.4,1.2c.7.6,1.5,1.2,2.3,2,.9.8,2,1.6,3.1,2.1,1.1.6,2.3.9,3.5,1,1,0,1.9.1,2.9,0,.9,0,1.7-.3,2.5-.7,1.9-.9,3.7-2.3,5-3.9,1.4-1.7,2.4-3.7,2.9-5.8.4-1.4.5-2.9.3-4.4-.2-1.5-.6-3-1.2-4.4h0c-.7-1.7-1.4-3.3-2-5-.6-1.6-.9-3.3-1.1-4.9-.2-1.6-.3-3.3-.2-4.9,0-2.6-.5-5.2-1.6-7.6-1.1-2.4-2.8-4.6-4.8-6.3-1.7-1.6-3.9-2.7-6.2-3.2-2.3-.4-4.7,0-6.9.8-1.5.6-2.9,1.4-4.2,2.3-1.3.9-2.5,2-3.6,3.1-.3.3-.6.7-1.1,1.2-.3.4-.7.8-1.1,1.3-1.3,1.6-2.8,2.9-4.5,4.1-1.7,1.1-3.5,2-5.4,2.6l-.8.3c-.6.2-1.2.4-1.7.6-1.9.7-3.7,1.8-5.2,3.2h0ZM235.2,65.1c-.4,1-.9,1.9-1.5,2.7-.6.8-1.2,1.6-2,2.3-1.1,1.2-2.4,2.3-3.7,3.2-1.4,1-2.8,1.8-4.4,2.4-4.2,1.9-9.2.2-11.3-3.9-1-1.7-1.6-3.6-1.7-5.6,0-2,.5-4,1.6-5.7,1-1.7,2.2-3.3,3.6-4.8,1.4-1.5,3-2.7,4.7-3.7.8-.4,1.6-.8,2.4-1.1.8-.3,1.6-.5,2.5-.7,0,0,.1,0,.2,0,2.2-.4,4.6,0,6.4,1.4,1.9,1.3,3.1,3.3,3.6,5.6v.2c.3,1.3.3,2.5.2,3.8,0,1.3-.3,2.6-.7,3.8h0ZM231.9,66.6c.5-.7.9-1.4,1.2-2.2.3-1.1.5-2.1.6-3.3,0-1.1,0-2.2-.2-3.3v-.2c-.3-1.7-1.3-3.2-2.7-4.2-1.4-1-3.1-1.4-4.8-1h-.2c-.7.2-1.4.4-2.1.6-.7.3-1.4.6-2.1,1-1.6.9-3,2-4.2,3.3-1.3,1.3-2.4,2.8-3.3,4.4-.8,1.3-1.3,2.9-1.3,4.5,0,1.6.5,3.2,1.4,4.5.8,1.5,2.1,2.6,3.7,3.2,1.6.5,3.4.4,4.9-.3,1.4-.6,2.7-1.3,3.9-2.2,1.2-.9,2.4-1.9,3.4-3,.6-.6,1.2-1.3,1.7-2h0ZM194.1,36c-.2,1-.5,2-.8,2.9-.4.9-.9,1.8-1.4,2.6-.5.7-1,1.3-1.7,1.9-.7.6-1.4,1.1-2.2,1.5-.8.4-1.5.7-2.4.9-2.2.5-4.4.3-6.5-.4-2.3-.8-4.1-2.4-5.3-4.5-.4-.8-.8-1.7-1-2.6-1.5-6.1-.2-12.5,3.6-17.5,1.1-1.6,2.7-2.8,4.5-3.5,1.9-.7,3.9-.8,5.8-.4,1.8.3,3.5,1,4.9,2.2,1.3,1.1,2.3,2.6,2.8,4.3.3.9.5,1.9.6,2.9.1,1,.1,2.1,0,3.1-.2,2-.5,4-.9,6v.7c-.1,0-.1,0-.1,0ZM191.2,38.1c.3-.8.6-1.6.7-2.5v-.7c.5-1.9.8-3.9,1-5.8,0-.9,0-1.8,0-2.8,0-.8-.2-1.7-.5-2.5-.4-1.3-1.1-2.4-2.1-3.2-1.2-.9-2.5-1.5-3.9-1.7-1.5-.3-3.1-.2-4.6.3-1.4.5-2.6,1.5-3.5,2.7-1.7,2.2-2.8,4.8-3.4,7.5-.5,2.7-.5,5.5.2,8.2.2.7.4,1.4.8,2.1.9,1.6,2.4,2.9,4.1,3.5,1.7.6,3.5.7,5.2.4.6-.1,1.3-.4,1.8-.7.6-.3,1.2-.8,1.7-1.2.5-.5,1-1,1.4-1.5.5-.6.9-1.4,1.2-2.1ZM199.7,36.1c.7-1.9,1.6-3.7,2.7-5.4,1.1-1.7,2.6-3.2,4.2-4.5,1.8-1.4,4.1-2.2,6.4-2.3,2.4,0,4.7.7,6.6,2,1.2.8,2.1,1.9,2.8,3.2,1.2,2.5,1.5,5.3,1,8-.3,1.3-.7,2.6-1.3,3.8-.7,1.6-1.6,3.2-2.6,4.7-1,1.5-2.2,2.9-3.5,4.1-1.5,1.5-3.4,2.5-5.5,2.9-2.1.3-4.2,0-6.1-1-2-1-3.6-2.6-4.7-4.6-1-2-1.4-4.2-1.1-6.4.2-1.1.4-2.1.7-3l.4-1.4h0c0,0,0,0,0,0ZM204.3,31.9c-1,1.5-1.8,3.1-2.5,4.8l-.3,1.3c-.2,1-.5,1.9-.6,2.8-.3,1.7,0,3.5.8,5.1.8,1.6,2.1,2.9,3.8,3.7,1.5.8,3.1,1.1,4.8.8,1.7-.3,3.2-1.1,4.4-2.3,1.2-1.1,2.3-2.4,3.2-3.8.9-1.4,1.7-2.8,2.4-4.3.5-1.1.9-2.2,1.1-3.3.2-1.1.3-2.3.1-3.4-.1-1.1-.4-2.2-.9-3.2-.5-.9-1.1-1.7-2-2.3-1.6-1.1-3.5-1.7-5.4-1.7-1.8,0-3.6.7-5.1,1.8-1.5,1.1-2.7,2.4-3.7,4ZM149.1,39.4c.1-.3.3-.6.5-.9.5-1,1-2,1.6-2.9.5-.8,1.1-1.5,1.8-2.1,1.5-1.3,3.4-2.1,5.4-2.4,2.1-.2,4.3.3,6.1,1.6.8.6,1.5,1.2,2.2,2,.5.6.9,1.2,1.3,1.8.4.6.8,1.3,1,2,1,2.4,1.6,4.9,1.8,7.4.3,2.6,0,5.2-.7,7.7-1.1,3.7-3,6.2-5.4,7.5-2.6,1.5-5.8,1.6-9.2.7-1.3-.3-2.4-1-3.4-1.9-1-1-1.8-2.2-2.4-3.5-1.2-2.6-1.9-5.3-2-8.2,0-2.9.3-5.9,1.2-8.7h0c0,0,0-.2,0-.2h0ZM151.5,39.4l-.5.9c-.8,2.6-1.1,5.2-1.1,7.9.1,2.5.7,5,1.8,7.3.5,1,1.1,2,1.9,2.8.7.7,1.5,1.1,2.5,1.4,2.8.8,5.5.7,7.6-.5,1.9-1.1,3.4-3.1,4.4-6.3.6-2.2.9-4.5.6-6.8-.2-2.4-.8-4.7-1.7-6.8-.2-.6-.5-1.1-.8-1.6-.4-.5-.7-1.1-1.2-1.5-.5-.6-1.1-1.1-1.8-1.6-1.3-.9-3-1.4-4.6-1.2-1.6.2-3,.8-4.2,1.9-.6.5-1.1,1-1.5,1.6-.5.9-1,1.7-1.5,2.7h0ZM320,161.4c.7-2.3,2-4.3,3.7-6,1.7-1.6,3.7-2.8,5.9-3.6.7-.3,1.2-.5,1.8-.6l.8-.3c1.7-.6,3.4-1.4,4.9-2.4,1.5-1,2.9-2.2,4-3.7.3-.4.7-.8,1.1-1.3.3-.3.7-.7,1.1-1.3,1.2-1.3,2.5-2.5,3.9-3.5,1.4-1,3-1.8,4.6-2.5,2.5-1.1,5.3-1.4,8.1-1,2.7.5,5.3,1.8,7.3,3.7,2.3,1.9,4.1,4.3,5.3,7,1.2,2.7,1.9,5.6,1.8,8.5,0,1.6,0,3.1.2,4.7.2,1.5.5,3,1,4.4.6,1.6,1.3,3.2,2,4.8h0c.7,1.6,1.2,3.3,1.4,5,.2,1.8,0,3.5-.4,5.2-.6,2.4-1.8,4.7-3.4,6.6-1.6,1.9-3.5,3.4-5.7,4.5-1,.5-2.1.8-3.3.9-1.1,0-2.2,0-3.2,0-1.5-.1-3-.5-4.3-1.2-1.3-.7-2.5-1.5-3.5-2.5-.7-.6-1.4-1.2-2.2-1.9l-1.4-1.2c-1.3-1.1-2.8-2-4.4-2.6-1.7-.6-3.5-.9-5.3-.9-1.1,0-2.2,0-3.2.1-1.1,0-2.1.3-3.1.6-.4.1-.9.2-1.3.3-3.2.6-6.6-.1-9.3-2-2.6-1.8-4.4-4.3-5.3-7.3-.1-.4-.2-.8-.3-1.2-.3-1.6-.4-3.2-.3-4.9.1-1.6.4-3.2.9-4.8h0ZM325.1,157c-1.4,1.4-2.5,3.2-3.1,5.1h0c-.4,1.4-.7,2.8-.8,4.2,0,1.4,0,2.9.3,4.3,0,.3.1.7.2,1,.7,2.5,2.3,4.7,4.4,6.1,2.2,1.5,5,2.1,7.7,1.6.4,0,.7-.2,1.1-.3,1.1-.3,2.3-.5,3.5-.7,1.1-.1,2.3-.2,3.5-.1,2,0,4.1.3,6,1,1.9.7,3.6,1.7,5.1,3l1.4,1.2c.7.6,1.5,1.2,2.3,2,.9.9,1.9,1.6,3.1,2.2,1.1.6,2.3.9,3.5,1,1,0,1.9,0,2.9,0,.9,0,1.7-.3,2.5-.7,1.9-.9,3.7-2.3,5.1-3.9,1.4-1.7,2.4-3.7,2.9-5.8.4-1.4.5-2.9.4-4.4-.2-1.5-.6-3-1.2-4.4h0c-.7-1.7-1.4-3.3-2-5-.6-1.6-.9-3.3-1.1-4.9-.2-1.6-.2-3.3-.2-4.9,0-2.6-.5-5.2-1.6-7.6-1.2-2.4-2.8-4.6-4.8-6.3-1.7-1.6-3.9-2.7-6.2-3.2-2.3-.4-4.7,0-6.9.8-1.5.6-2.9,1.3-4.2,2.3-1.3.9-2.5,2-3.5,3.1-.3.3-.6.7-1.1,1.2-.3.4-.7.8-1.1,1.3-1.3,1.6-2.8,2.9-4.5,4.1-1.7,1.1-3.5,2-5.4,2.6l-.8.3c-.6.2-1.2.4-1.7.6-1.9.7-3.7,1.8-5.2,3.1h0ZM401.7,152.1c-.4,1-.9,1.9-1.5,2.7-.6.8-1.2,1.6-1.9,2.3-1.1,1.2-2.4,2.3-3.7,3.2-1.3,1-2.8,1.8-4.3,2.4-2,.9-4.3,1-6.4.3-2.1-.8-3.8-2.3-4.9-4.2-1-1.7-1.6-3.6-1.7-5.6,0-2,.6-4,1.6-5.7,1-1.7,2.2-3.3,3.6-4.8,1.4-1.5,3-2.7,4.7-3.7.8-.4,1.6-.8,2.4-1.1.8-.3,1.6-.5,2.5-.7,0,0,.2,0,.2,0,2.2-.4,4.5,0,6.4,1.4,1.9,1.3,3.1,3.3,3.6,5.6v.2c.3,1.3.3,2.5.2,3.8,0,1.3-.3,2.6-.7,3.8h0s0,0,0,0ZM398.5,153.6c.5-.7.9-1.4,1.2-2.2.3-1.1.6-2.1.7-3.3,0-1.1,0-2.2-.2-3.3v-.2c-.3-1.7-1.3-3.2-2.7-4.2-1.4-1-3.1-1.3-4.8-1h-.2c-.7.2-1.4.4-2.1.7-.7.3-1.4.6-2.1,1-1.6.9-3,2-4.2,3.3-1.3,1.3-2.4,2.8-3.3,4.4-.9,1.3-1.3,2.9-1.3,4.5,0,1.6.6,3.2,1.4,4.5.8,1.5,2.1,2.6,3.7,3.2,1.6.5,3.4.4,4.9-.3,1.4-.6,2.7-1.3,3.9-2.2,1.2-.9,2.4-1.9,3.4-3,.6-.6,1.2-1.3,1.7-2h0ZM360.7,123c-.2,1-.5,2-.8,2.9-.4.9-.8,1.8-1.4,2.6-1,1.4-2.3,2.6-3.8,3.4-.7.4-1.5.7-2.4.9-2.2.5-4.4.3-6.5-.4-2.3-.8-4.1-2.4-5.3-4.5-.5-.8-.8-1.7-1-2.6-.7-3-.8-6.1-.2-9.2.6-3,1.9-5.9,3.8-8.3,1.1-1.6,2.7-2.8,4.5-3.5,3.6-1.2,7.7-.5,10.7,1.8,1.3,1.1,2.3,2.6,2.8,4.2.3,1,.5,1.9.6,2.9.1,1,.1,2.1,0,3.1-.2,2-.5,4-.9,6v.7c-.1,0-.1,0-.1,0ZM357.8,125.1c.3-.8.6-1.6.7-2.5v-.7c.5-2,.8-3.9,1-5.8,0-.9,0-1.8,0-2.7,0-.8-.3-1.7-.5-2.5-.4-1.2-1.1-2.4-2.1-3.2-2.5-1.8-5.6-2.4-8.6-1.4-1.4.6-2.6,1.5-3.5,2.7-3.4,4.5-4.6,10.3-3.3,15.7.2.7.4,1.4.8,2.1.9,1.6,2.4,2.9,4.1,3.5,1.7.6,3.5.7,5.3.3.6-.1,1.2-.4,1.8-.7.6-.3,1.2-.7,1.7-1.2.5-.5,1-1,1.4-1.5.5-.7.9-1.4,1.2-2.1h0ZM366.3,123.1c.7-1.9,1.6-3.7,2.7-5.3,1.2-1.7,2.6-3.2,4.2-4.5,1.8-1.4,4-2.2,6.3-2.2,2.4,0,4.7.7,6.6,2,1.2.8,2.2,1.9,2.8,3.2.6,1.2,1,2.5,1.1,3.9.2,1.4.1,2.7-.1,4.1-.3,1.3-.7,2.6-1.3,3.8-.7,1.6-1.6,3.2-2.6,4.6-1,1.5-2.2,2.9-3.5,4.1-1.5,1.5-3.4,2.5-5.5,2.9-2.1.3-4.2,0-6.1-1-2-1-3.6-2.6-4.7-4.6-1-2-1.4-4.2-1.1-6.4.2-1,.4-2,.7-3l.3-1.4h0c0,0,0,0,0,0ZM370.9,119c-1,1.5-1.8,3.2-2.5,4.9l-.3,1.3c-.2,1-.5,1.9-.6,2.8-.3,1.7,0,3.5.8,5,.8,1.6,2.2,2.9,3.8,3.7,1.5.8,3.1,1.1,4.8.8,1.7-.3,3.2-1.1,4.4-2.3,1.2-1.1,2.3-2.4,3.2-3.8.9-1.4,1.7-2.8,2.4-4.3.5-1.1.9-2.2,1.1-3.3.4-2.2.2-4.5-.8-6.6-.5-.9-1.1-1.7-2-2.3-1.6-1.1-3.5-1.6-5.4-1.7-1.8,0-3.6.7-5.1,1.8-1.4,1.1-2.7,2.4-3.7,3.9h0ZM315.7,126.4c.1-.3.3-.6.5-.9.5-1,1-2,1.6-2.9.5-.8,1.1-1.5,1.8-2.1,1.5-1.3,3.4-2.1,5.4-2.4,2.1-.2,4.3.3,6.1,1.6.8.6,1.5,1.2,2.2,2,.5.6.9,1.2,1.3,1.8.4.6.8,1.3,1.1,2,.9,2.4,1.6,4.9,1.8,7.4.3,2.6,0,5.2-.7,7.7-1.1,3.7-3,6.2-5.4,7.5-2.6,1.5-5.8,1.6-9.2.7-1.3-.3-2.4-1-3.4-1.9-1-1-1.8-2.2-2.4-3.5-1.2-2.6-1.9-5.3-2-8.2,0-2.9.3-5.9,1.2-8.7h0c0-.1,0-.2,0-.2ZM318.1,126.5l-.5.9c-.8,2.6-1.1,5.2-1,7.9.1,2.5.7,5.1,1.8,7.4.5,1,1.1,2,1.9,2.8.7.7,1.5,1.1,2.5,1.4,2.8.7,5.5.7,7.6-.5,1.9-1.1,3.4-3.1,4.4-6.3.6-2.2.9-4.6.6-6.9-.2-2.3-.8-4.6-1.7-6.8-.2-.6-.5-1.1-.8-1.6-.4-.5-.7-1.1-1.2-1.6-.5-.6-1.1-1.1-1.8-1.6-1.3-.9-3-1.4-4.6-1.2-1.6.2-3,.8-4.2,1.9-.6.5-1,1-1.5,1.6-.6.8-1.1,1.7-1.5,2.7h0ZM222.9,224.3c-.9,2.2-2.3,4.2-4.1,5.7-1.8,1.4-3.9,2.5-6.2,3.1-.6.2-1.2.3-1.9.5l-.8.2c-1.8.4-3.5,1.1-5.1,2-1.6.9-3,2-4.3,3.3l-1.2,1.2c-.4.4-.8.8-1.2,1.2-1.3,1.2-2.7,2.3-4.2,3.1-1.5.9-3.1,1.6-4.8,2.1-2.6.9-5.4,1-8.1.3-2.7-.8-5.1-2.2-7-4.3-2.1-2.1-3.7-4.7-4.8-7.4-1-2.8-1.4-5.7-1.1-8.6.1-1.6.2-3.2.2-4.7,0-1.5-.3-3-.7-4.5-.4-1.6-1-3.3-1.6-5h0c-.6-1.7-.9-3.4-1-5.1,0-1.8.2-3.5.8-5.2.8-2.4,2.2-4.5,3.9-6.3,1.7-1.8,3.8-3.1,6.1-4,1.1-.4,2.2-.6,3.3-.6,1.1,0,2.2,0,3.2.3,1.5.2,2.9.8,4.2,1.6,1.2.8,2.3,1.7,3.3,2.8.7.7,1.4,1.4,2.1,2.1l1.3,1.3c1.2,1.2,2.6,2.2,4.2,2.9,1.6.7,3.4,1.2,5.2,1.3,1.1.1,2.2.2,3.2.1,1.1,0,2.1-.1,3.2-.3.4,0,.9-.2,1.3-.2,3.3-.3,6.5.6,9.1,2.7,2.4,2,4.1,4.7,4.7,7.7,0,.4.1.8.2,1.2.2,1.6.1,3.2-.1,4.9-.2,1.6-.7,3.2-1.3,4.6h0ZM217.3,228.3c1.6-1.3,2.8-2.9,3.5-4.8h0c.6-1.3.9-2.7,1.1-4.1.2-1.4.2-2.9,0-4.3,0-.3,0-.7-.2-1-.5-2.5-1.9-4.8-3.9-6.5-2.1-1.7-4.8-2.5-7.5-2.2-.4,0-.8,0-1.1.2-1.2.2-2.4.3-3.6.4-1.2,0-2.3,0-3.5-.1-2-.2-4-.7-5.9-1.5-1.8-.8-3.5-2-4.8-3.4l-1.3-1.3c-.7-.7-1.4-1.4-2.1-2.1-.8-.9-1.8-1.7-2.9-2.4-1-.6-2.2-1.1-3.4-1.3-.9-.2-1.9-.2-2.9-.2-.9,0-1.8.2-2.6.5-2,.8-3.8,1.9-5.3,3.5-1.5,1.6-2.6,3.5-3.4,5.5-.5,1.4-.8,2.9-.7,4.4,0,1.5.4,3,.9,4.4h0c.6,1.7,1.1,3.4,1.6,5.1.4,1.6.7,3.3.7,5,0,1.7,0,3.3-.2,4.9-.2,2.6.1,5.2,1,7.7,1,2.5,2.4,4.8,4.3,6.7,1.6,1.7,3.7,3,6,3.7,2.3.6,4.7.5,6.9-.3,1.5-.5,3-1.1,4.3-1.9,1.4-.8,2.6-1.8,3.8-2.9l1.2-1.1,1.2-1.2c1.4-1.5,3-2.7,4.8-3.7,1.8-1,3.7-1.7,5.6-2.2l.8-.2c.6-.1,1.2-.3,1.7-.4,2-.5,3.8-1.5,5.4-2.7h0ZM140.6,227c.4-.9,1-1.8,1.7-2.6.7-.8,1.4-1.5,2.1-2.1,1.2-1.1,2.6-2.1,4-2.9,1.4-.9,2.9-1.6,4.5-2.1,2.1-.7,4.4-.7,6.4.2,2,.9,3.6,2.6,4.5,4.6.9,1.8,1.3,3.7,1.2,5.7-.1,2-.9,3.9-2.1,5.5-1.2,1.6-2.5,3.1-4,4.5-1.5,1.3-3.2,2.5-5,3.3-.8.4-1.6.7-2.5.9-.8.3-1.7.4-2.5.5,0,0-.2,0-.2,0-2.3.2-4.5-.5-6.3-1.9-1.7-1.5-2.9-3.6-3.1-5.8,0,0,0-.2,0-.2-.1-1.3,0-2.6.1-3.8.2-1.3.5-2.5,1-3.7h0s0,0,0,0ZM143.9,225.8c-.6.6-1,1.3-1.4,2.1-.4,1-.7,2.1-.9,3.2-.2,1.1-.2,2.2,0,3.3v.2c.2,1.7,1,3.3,2.3,4.4,1.3,1.1,3,1.6,4.7,1.4h.2c.7-.1,1.5-.3,2.2-.5.7-.2,1.5-.5,2.1-.8,1.6-.8,3.2-1.8,4.5-3,1.4-1.2,2.6-2.6,3.7-4.1,1-1.3,1.5-2.8,1.7-4.4,0-1.6-.3-3.2-1-4.6-.7-1.6-1.9-2.8-3.4-3.5-1.6-.6-3.3-.7-4.9,0-1.4.5-2.8,1.1-4.1,1.9-1.3.8-2.5,1.7-3.7,2.7-.7.6-1.3,1.2-1.9,1.9h0ZM179.2,259.3c.3-1,.6-1.9,1.1-2.8.8-1.6,2-3.1,3.5-4.2.7-.5,1.5-1,2.3-1.3.8-.3,1.6-.6,2.4-.7,2.2-.3,4.4,0,6.4.9,2.2,1,3.9,2.7,4.9,4.9.4.9.6,1.8.8,2.7,1,6.2-.8,12.5-5,17.1-1.2,1.5-2.9,2.6-4.7,3.1-1.9.5-3.9.5-5.8,0-1.8-.4-3.4-1.3-4.7-2.6-1.2-1.2-2.1-2.8-2.5-4.5-.2-1-.3-2-.3-3,0-1,0-2.1.2-3.1.3-2,.8-4,1.3-5.9l.2-.7h0ZM182.2,257.4c-.4.8-.7,1.6-.9,2.4l-.2.7c-.5,1.9-1,3.8-1.3,5.7-.1.9-.2,1.8-.2,2.7,0,.8.1,1.7.3,2.5.3,1.3.9,2.4,1.8,3.4,2.3,2,5.4,2.8,8.4,2.1,1.4-.4,2.7-1.3,3.7-2.4,3.8-4.2,5.4-9.9,4.5-15.4-.1-.7-.3-1.5-.6-2.1-.8-1.7-2.1-3.1-3.8-3.8-1.6-.7-3.4-1-5.2-.7-.6,0-1.3.3-1.9.5-1.3.6-2.4,1.4-3.3,2.5-.5.6-1,1.3-1.3,2h0ZM173.6,258.7c-.9,1.8-1.9,3.5-3.2,5.1-1.3,1.6-2.8,3-4.6,4.1-1.9,1.2-4.2,1.9-6.5,1.7-2.3-.2-4.6-1.1-6.4-2.5-1.1-.9-2-2-2.5-3.4-.9-2.6-1.1-5.4-.3-8,.4-1.3.9-2.5,1.6-3.7.9-1.6,1.9-3,3-4.4,1.1-1.4,2.4-2.7,3.8-3.8,1.6-1.4,3.6-2.2,5.7-2.4,2.1-.2,4.2.4,6,1.5,1.9,1.2,3.4,2.9,4.3,5,.9,2,1.1,4.3.6,6.5-.3,1-.6,2-.9,2.9-.1.5-.3,1-.5,1.4h0ZM168.7,262.5c1.1-1.4,2.1-3,2.9-4.7l.4-1.2c.3-.9.6-1.9.9-2.8.4-1.7.2-3.5-.5-5.1-.7-1.7-1.9-3-3.4-4-1.4-.9-3-1.3-4.7-1.2-1.7.2-3.3.8-4.6,1.9-1.3,1-2.4,2.2-3.5,3.5-1,1.3-2,2.7-2.8,4.1-.6,1-1.1,2.1-1.4,3.2-.3,1.1-.4,2.2-.4,3.4,0,1.1.2,2.2.6,3.3.4,1,1,1.8,1.8,2.4,1.5,1.2,3.3,1.9,5.2,2.1,1.8,0,3.7-.4,5.2-1.4,1.5-1,2.9-2.2,4-3.7h0ZM224.3,259.5c-.2.3-.4.6-.6.9-.6,1-1.2,1.9-1.9,2.8-.6.7-1.2,1.4-2,1.9-1.6,1.2-3.6,1.9-5.6,1.9-2.1,0-4.2-.7-5.9-2-.8-.6-1.4-1.3-2-2.1-.4-.6-.8-1.2-1.2-1.9-.4-.7-.7-1.4-.9-2.1-.8-2.4-1.2-5-1.2-7.6,0-2.6.4-5.2,1.3-7.6,1.4-3.6,3.5-5.9,6-7.1,2.7-1.3,5.9-1.1,9.2,0,1.2.4,2.3,1.2,3.2,2.2.9,1.1,1.7,2.3,2.1,3.6,1,2.7,1.5,5.5,1.3,8.3-.1,2.9-.8,5.8-1.9,8.5h0c0,0,0,.2,0,.2h0ZM221.9,259.2l.5-.8c1-2.5,1.5-5.1,1.7-7.8,0-2.5-.3-5.1-1.2-7.5-.4-1.1-1-2.1-1.7-2.9-.6-.7-1.4-1.3-2.3-1.6-2.8-1-5.4-1.1-7.6,0-2,.9-3.7,2.8-4.9,5.9-.8,2.2-1.2,4.5-1.2,6.8,0,2.4.4,4.7,1.1,6.9.2.6.4,1.2.7,1.7.3.6.7,1.1,1,1.6.5.6,1,1.2,1.6,1.7,1.3,1,2.9,1.6,4.5,1.6,1.6,0,3.1-.6,4.4-1.5.6-.4,1.1-.9,1.6-1.5.6-.8,1.2-1.7,1.7-2.5h0ZM27.7,397.8c.7-2.3,2-4.3,3.7-6,1.7-1.6,3.7-2.8,5.9-3.6.7-.3,1.3-.4,1.8-.6l.8-.3c1.7-.6,3.4-1.4,4.9-2.4,1.5-1,2.9-2.2,4-3.7.3-.4.7-.8,1.1-1.3.3-.3.7-.7,1.1-1.3,1.2-1.3,2.5-2.5,3.9-3.5,1.4-1,3-1.9,4.6-2.5,2.5-1.1,5.3-1.4,8.1-1,2.7.5,5.2,1.8,7.3,3.7,2.3,1.9,4.1,4.3,5.4,7,1.2,2.7,1.8,5.6,1.8,8.5,0,1.6,0,3.1.2,4.7.1,1.5.5,3,1,4.4.6,1.6,1.3,3.2,2,4.8h0c.7,1.6,1.2,3.3,1.4,5,.2,1.8,0,3.5-.4,5.2-.6,2.4-1.8,4.7-3.3,6.6-1.6,1.9-3.5,3.4-5.8,4.5-1,.5-2.1.8-3.3.9-1.1,0-2.2,0-3.3,0-1.5-.1-3-.5-4.3-1.2-1.3-.7-2.5-1.5-3.5-2.5-.7-.6-1.4-1.2-2.2-1.9l-1.4-1.2c-1.3-1.1-2.8-2-4.4-2.6-1.7-.6-3.5-.9-5.3-.9-1.1,0-2.2,0-3.2.1-1.1.1-2.1.3-3.1.6-.4.1-.9.2-1.3.3-3.2.6-6.6-.1-9.3-2-2.6-1.8-4.4-4.3-5.3-7.3,0-.4-.2-.8-.3-1.2-.6-3.2-.4-6.5.7-9.6ZM32.8,393.4c-1.4,1.4-2.5,3.2-3.1,5.1h0c-.4,1.4-.7,2.8-.8,4.2,0,1.4,0,2.9.3,4.3,0,.3.1.7.2,1,.7,2.5,2.3,4.7,4.4,6.1,2.2,1.5,5,2.1,7.7,1.6.4,0,.7-.2,1.1-.3,1.1-.3,2.3-.5,3.5-.7,1.1-.1,2.3-.2,3.5-.1,2,0,4.1.3,6,1,1.9.7,3.6,1.7,5.1,3l1.4,1.2c.7.6,1.5,1.2,2.3,2,.9.9,1.9,1.6,3.1,2.2,1.1.5,2.3.9,3.5,1,1,0,1.9,0,2.9,0,.9,0,1.7-.3,2.5-.7,1.9-.9,3.7-2.3,5-3.9,1.4-1.7,2.4-3.7,2.9-5.8.4-1.4.5-2.9.4-4.4-.2-1.5-.6-3-1.2-4.4h0c-.7-1.7-1.4-3.3-2-5-.6-1.6-.9-3.3-1.1-4.9-.2-1.6-.2-3.3-.2-4.9,0-2.6-.5-5.2-1.6-7.6-1.2-2.4-2.8-4.6-4.8-6.3-1.7-1.6-3.9-2.7-6.2-3.2-2.3-.4-4.7,0-6.9.8-1.5.6-2.9,1.3-4.2,2.3-1.3.9-2.5,2-3.5,3.1-.3.3-.6.7-1.1,1.2-.3.4-.7.8-1.1,1.3-1.3,1.6-2.8,2.9-4.5,4.1-1.7,1.1-3.5,2-5.4,2.6l-.8.3c-.6.2-1.2.4-1.7.6-1.9.7-3.7,1.8-5.2,3.1h0ZM109.5,388.6c-.4,1-.9,1.9-1.5,2.7-.6.8-1.2,1.6-1.9,2.3-1.1,1.2-2.4,2.3-3.7,3.2-1.3,1-2.8,1.8-4.3,2.4-2,.9-4.3,1-6.4.3-2.1-.8-3.8-2.3-4.9-4.2-1-1.7-1.6-3.6-1.7-5.6,0-2,.5-4,1.6-5.7,1-1.7,2.2-3.3,3.6-4.8,1.4-1.5,3-2.7,4.7-3.7.8-.4,1.6-.8,2.4-1.1.8-.3,1.6-.5,2.4-.7,0,0,.2,0,.2,0,2.2-.4,4.6,0,6.4,1.4,1.9,1.3,3.1,3.3,3.6,5.6v.2c.5,2.5.3,5.2-.5,7.6h0s0,0,0,0ZM106.2,390c.5-.7.9-1.4,1.2-2.2.3-1.1.6-2.1.7-3.3,0-1.1,0-2.2-.2-3.3v-.2c-.3-1.7-1.3-3.2-2.7-4.2-1.4-1-3.1-1.3-4.8-1h-.2c-.7.2-1.4.4-2.1.7-.7.3-1.4.6-2.1,1-1.6.9-3,2-4.2,3.3-1.3,1.3-2.4,2.8-3.3,4.4-.9,1.3-1.3,2.9-1.3,4.5,0,1.6.6,3.2,1.4,4.5,1.6,3.2,5.4,4.5,8.6,3,1.4-.6,2.7-1.3,3.9-2.2,1.2-.9,2.4-1.9,3.4-3,.6-.6,1.2-1.3,1.7-2h0ZM68.4,359.4c-.2,1-.5,2-.8,2.9-.4.9-.8,1.8-1.4,2.6-.5.7-1,1.3-1.7,1.9-.7.6-1.4,1.1-2.2,1.5-.7.4-1.5.7-2.4.9-2.2.5-4.4.3-6.5-.4-2.3-.8-4.1-2.4-5.3-4.5-.5-.8-.8-1.7-1-2.6-.7-3-.8-6.1-.2-9.2.6-3,1.9-5.9,3.8-8.3,1.1-1.6,2.7-2.8,4.5-3.5,1.9-.7,3.9-.8,5.8-.4,1.8.3,3.5,1.1,4.9,2.2,1.3,1.1,2.3,2.6,2.8,4.2.3,1,.5,1.9.6,2.9.1,1,.1,2.1,0,3.1-.2,2.1-.5,4-.8,6v.7c-.1,0-.1,0-.1,0ZM65.5,361.5c.3-.8.6-1.6.7-2.5v-.7c.5-1.9.8-3.9.9-5.8,0-.9,0-1.8,0-2.7,0-.8-.3-1.7-.5-2.5-.4-1.3-1.1-2.4-2.1-3.2-1.1-.9-2.5-1.5-3.9-1.7-1.5-.3-3.1-.2-4.6.3-1.4.6-2.6,1.5-3.5,2.7-1.7,2.2-2.8,4.8-3.4,7.5-.5,2.7-.5,5.5.2,8.2.2.7.4,1.4.8,2.1.9,1.6,2.4,2.9,4.1,3.5,1.7.6,3.5.7,5.2.3.6-.1,1.2-.4,1.8-.7.6-.3,1.2-.7,1.7-1.2.5-.4,1-1,1.4-1.5.5-.7.9-1.4,1.2-2.1h0ZM74,359.5c.7-1.9,1.6-3.7,2.8-5.3,1.1-1.7,2.6-3.2,4.2-4.5,1.8-1.4,4.1-2.2,6.4-2.3,2.4,0,4.6.7,6.6,2,1.2.8,2.2,1.9,2.8,3.2.6,1.2,1,2.5,1.1,3.9.2,1.4.1,2.7-.1,4.1-.3,1.3-.7,2.6-1.3,3.8-.7,1.6-1.6,3.2-2.6,4.6-1,1.5-2.2,2.9-3.5,4.1-1.5,1.5-3.4,2.5-5.5,2.9-2.1.3-4.2,0-6.1-1-2-1-3.6-2.6-4.7-4.6-1-2-1.4-4.2-1.1-6.4.2-1.1.4-2.1.7-3l.3-1.4h0c0,0,0,0,0,0ZM78.6,355.4c-1,1.5-1.8,3.2-2.5,4.9l-.3,1.3c-.3,1-.5,1.9-.7,2.8-.3,1.7,0,3.5.9,5,.8,1.6,2.1,2.9,3.7,3.7,1.5.8,3.1,1,4.8.8,1.7-.3,3.2-1.1,4.4-2.3,1.2-1.1,2.2-2.4,3.2-3.8.9-1.4,1.7-2.8,2.4-4.3.5-1.1.9-2.2,1.1-3.3.2-1.1.3-2.3.1-3.4-.1-1.1-.4-2.2-.9-3.2-.4-.9-1.1-1.7-2-2.3-1.6-1.1-3.5-1.7-5.4-1.7-1.8,0-3.6.7-5.1,1.8-1.4,1.1-2.7,2.4-3.7,3.9h0ZM23.4,362.8c.1-.3.3-.6.5-.9.5-1,1-2,1.6-2.9.5-.8,1.1-1.5,1.9-2.1,1.5-1.3,3.4-2.1,5.4-2.4,2.1-.2,4.3.3,6.1,1.6.8.6,1.6,1.2,2.2,2,.5.6.9,1.2,1.3,1.8.4.6.8,1.3,1.1,2,1,2.4,1.6,4.9,1.8,7.4.3,2.6,0,5.2-.7,7.7-1.1,3.8-3,6.2-5.4,7.5-2.6,1.5-5.8,1.6-9.2.7-1.3-.3-2.4-1-3.4-1.9-1-1-1.8-2.2-2.4-3.5-1.2-2.6-1.9-5.3-2-8.2,0-2.9.3-5.9,1.2-8.7h0c0-.1,0-.2,0-.2h0ZM25.8,362.9l-.4.9c-.8,2.5-1.2,5.2-1.1,7.9.1,2.5.7,5,1.8,7.3.5,1,1.1,2,1.9,2.8.7.6,1.5,1.1,2.5,1.4,2.9.8,5.5.7,7.6-.5,1.9-1.1,3.4-3.1,4.4-6.3.7-2.2.9-4.6.7-6.9-.2-2.3-.8-4.6-1.7-6.8-.2-.6-.5-1.1-.8-1.6-.4-.5-.7-1.1-1.2-1.5-.5-.6-1.1-1.1-1.8-1.6-1.3-.9-3-1.4-4.6-1.2-1.6.2-3,.8-4.2,1.9-.6.5-1,1-1.5,1.6-.6.9-1,1.7-1.5,2.7h0ZM200.7,366.6c.7-2.3,2-4.3,3.7-6,1.7-1.6,3.7-2.8,5.9-3.6.6-.2,1.2-.5,1.8-.6l.8-.3c1.7-.6,3.4-1.4,4.9-2.4,1.5-1,2.9-2.3,4-3.7.3-.4.7-.8,1.1-1.3.3-.3.7-.7,1.1-1.3,1.2-1.3,2.5-2.5,3.9-3.5,1.4-1,3-1.8,4.6-2.5,2.5-1.1,5.3-1.4,8.1-1,2.7.5,5.3,1.8,7.3,3.7,2.3,2,4.1,4.4,5.4,7,1.2,2.7,1.8,5.6,1.8,8.5,0,1.6,0,3.1.2,4.7.2,1.5.5,3,1,4.4.6,1.6,1.3,3.2,2,4.8h0c.7,1.6,1.2,3.3,1.4,5,.2,1.7,0,3.5-.4,5.2-.6,2.4-1.8,4.7-3.4,6.6-1.6,1.9-3.5,3.4-5.7,4.5-1,.5-2.1.8-3.3.9-1.1,0-2.2,0-3.2,0-1.5-.1-3-.5-4.3-1.2-1.3-.7-2.5-1.5-3.5-2.5-.7-.6-1.4-1.2-2.2-1.9l-1.4-1.2c-1.3-1.1-2.8-2-4.4-2.6-1.7-.6-3.5-.9-5.3-.9-1.1,0-2.2,0-3.2.1-1.1,0-2.1.3-3.1.6-.4.1-.9.2-1.3.3-3.2.6-6.6-.1-9.3-2-2.6-1.8-4.4-4.3-5.3-7.3,0-.4-.2-.8-.3-1.2-.6-3.2-.4-6.5.7-9.6h0ZM205.8,362.2c-1.4,1.4-2.5,3.2-3.1,5.1h0c-.4,1.4-.7,2.8-.8,4.2,0,1.4,0,2.9.3,4.3,0,.3.1.7.2,1,.7,2.5,2.3,4.7,4.4,6.1,2.2,1.5,5,2.1,7.7,1.6.4,0,.7-.1,1.1-.3,1.2-.3,2.3-.5,3.5-.7,1.1-.1,2.3-.2,3.5-.1,2,0,4.1.3,6,1,1.9.7,3.6,1.7,5.1,3l1.4,1.2c.7.6,1.5,1.2,2.3,2,.9.9,1.9,1.6,3.1,2.2,1.1.6,2.3.9,3.5,1,1,0,1.9,0,2.9,0,.9,0,1.7-.3,2.5-.7,1.9-.9,3.7-2.3,5.1-3.9,1.4-1.7,2.4-3.7,2.9-5.8.4-1.4.5-2.9.4-4.4-.2-1.5-.6-3-1.2-4.4h0c-.7-1.7-1.4-3.3-2.1-5-.6-1.6-.9-3.3-1.1-4.9-.2-1.6-.2-3.3-.2-4.9,0-2.6-.5-5.2-1.6-7.6-1.2-2.4-2.8-4.6-4.8-6.3-1.7-1.6-3.9-2.7-6.2-3.2-2.3-.4-4.7,0-6.9.8-1.5.6-2.9,1.3-4.2,2.3-1.3.9-2.5,2-3.5,3.1-.3.3-.6.7-1.1,1.2-.3.4-.7.8-1.1,1.3-1.3,1.6-2.8,2.9-4.5,4.1-1.7,1.1-3.5,2-5.4,2.6l-.8.3c-.6.2-1.2.4-1.7.6-1.9.7-3.7,1.8-5.2,3.1h0ZM282.5,357.4c-.4,1-.9,1.9-1.5,2.7-.6.8-1.2,1.6-1.9,2.3-1.1,1.2-2.4,2.3-3.7,3.2-1.3,1-2.8,1.8-4.3,2.4-2,.9-4.3,1-6.4.3-2.1-.8-3.8-2.3-4.9-4.2-1-1.7-1.6-3.6-1.7-5.6,0-2,.5-4,1.6-5.7,1-1.7,2.2-3.3,3.6-4.8,1.4-1.5,3-2.7,4.7-3.7.8-.4,1.6-.8,2.4-1.1.8-.3,1.6-.5,2.4-.7,0,0,.2,0,.2,0,2.2-.4,4.5,0,6.4,1.4,1.9,1.3,3.1,3.3,3.6,5.6v.2c.3,1.3.3,2.5.3,3.8,0,1.3-.4,2.6-.8,3.8h0s0,0,0,0ZM279.2,358.9c.5-.7.9-1.4,1.2-2.2.4-1.1.6-2.1.7-3.3,0-1.1,0-2.2-.2-3.3v-.2c-.3-1.7-1.3-3.2-2.7-4.2-1.4-1-3.1-1.3-4.8-1h-.2c-.7.2-1.4.4-2.1.7-.7.3-1.4.6-2.1,1-1.6.9-3,2-4.2,3.3-1.3,1.3-2.4,2.8-3.3,4.4-.9,1.3-1.3,2.9-1.3,4.5,0,1.6.6,3.2,1.4,4.5.8,1.5,2.1,2.6,3.7,3.2,1.6.5,3.4.4,4.9-.3,1.4-.6,2.7-1.3,3.9-2.2,1.2-.9,2.4-1.9,3.4-3,.6-.6,1.2-1.3,1.7-2h0ZM241.4,328.3c-.2,1-.5,2-.8,2.9-.4.9-.8,1.8-1.4,2.6-1,1.4-2.3,2.6-3.8,3.4-.7.4-1.5.7-2.4.9-2.2.5-4.4.3-6.5-.4-3.2-1.2-5.5-3.9-6.3-7.2-.7-3-.8-6.1-.2-9.2.6-3,1.9-5.9,3.8-8.3,1.1-1.6,2.7-2.8,4.5-3.5,1.9-.7,3.9-.8,5.8-.4,1.8.3,3.5,1,4.9,2.2,1.3,1.1,2.3,2.6,2.8,4.2.3,1,.5,1.9.6,2.9.1,1,.1,2.1,0,3.1-.2,2-.5,4-.9,6v.7ZM238.5,330.4c.3-.8.6-1.6.7-2.5v-.7c.5-2,.8-3.9,1-5.8,0-.9,0-1.8,0-2.7,0-.8-.3-1.7-.5-2.5-.4-1.3-1.1-2.4-2.1-3.2-1.1-.9-2.5-1.5-3.9-1.7-1.5-.3-3.1-.2-4.6.3-1.4.5-2.6,1.5-3.5,2.7-3.4,4.5-4.6,10.3-3.3,15.7.2.7.4,1.4.8,2.1.9,1.6,2.4,2.9,4.1,3.5,1.7.6,3.5.7,5.2.3.6-.1,1.2-.4,1.8-.7.6-.3,1.2-.8,1.7-1.2,1.1-1,2-2.3,2.5-3.7h0ZM247,328.4c.7-1.9,1.6-3.7,2.7-5.3,1.2-1.7,2.6-3.2,4.2-4.5,1.8-1.4,4-2.2,6.3-2.2,2.4,0,4.7.7,6.6,2,1.2.8,2.2,1.9,2.8,3.2.6,1.2,1,2.5,1.1,3.9.2,1.4.1,2.8-.1,4.1-.3,1.3-.7,2.6-1.3,3.8-.7,1.6-1.6,3.2-2.6,4.7-1,1.5-2.2,2.9-3.5,4.1-1.5,1.5-3.4,2.5-5.5,2.9-2.1.3-4.2,0-6.1-1-2-1-3.6-2.6-4.7-4.6-1-2-1.4-4.2-1.1-6.4.2-1.1.4-2.1.7-3l.3-1.4h0c0,0,0,0,0,0ZM251.6,324.2c-1,1.5-1.8,3.2-2.5,4.9l-.3,1.3c-.3,1-.5,1.9-.7,2.8-.3,1.7,0,3.5.9,5,.8,1.6,2.1,2.9,3.7,3.7,1.5.8,3.1,1.1,4.8.8,1.7-.3,3.2-1.1,4.4-2.3,1.2-1.1,2.3-2.4,3.2-3.8.9-1.4,1.7-2.8,2.4-4.3.5-1.1.9-2.2,1.1-3.3.2-1.1.3-2.3.1-3.4-.1-1.1-.4-2.2-.9-3.2-.5-.9-1.1-1.7-2-2.3-1.6-1.1-3.5-1.6-5.4-1.7-1.8,0-3.6.7-5.1,1.8-1.4,1.1-2.7,2.4-3.7,3.9h0ZM196.4,331.7c.1-.3.3-.6.5-.9.5-1,1-2,1.6-2.9.5-.8,1.1-1.5,1.8-2.1,1.5-1.3,3.4-2.1,5.4-2.4,2.1-.2,4.3.3,6.1,1.6.8.6,1.6,1.2,2.2,2,.5.6.9,1.2,1.3,1.8.4.6.8,1.3,1.1,2,1,2.4,1.6,4.9,1.8,7.4.3,2.6,0,5.2-.7,7.7-1.1,3.7-3,6.2-5.4,7.5-2.6,1.5-5.8,1.6-9.2.7-1.3-.3-2.4-1-3.4-1.9-1-1-1.8-2.2-2.4-3.5-1.2-2.6-1.9-5.3-2-8.2,0-2.9.3-5.9,1.2-8.7h0c0-.1,0-.2,0-.2ZM198.8,331.7l-.4.9c-.8,2.5-1.2,5.2-1.1,7.9.1,2.5.7,5.1,1.8,7.4.5,1,1.1,2,1.9,2.8.7.7,1.5,1.1,2.5,1.4,2.9.7,5.5.7,7.6-.5,1.9-1.1,3.4-3.1,4.4-6.3.6-2.2.9-4.6.6-6.9-.2-2.3-.8-4.6-1.7-6.8-.2-.6-.5-1.1-.8-1.6-.4-.5-.7-1.1-1.2-1.6-.5-.6-1.1-1.1-1.8-1.6-1.3-.9-3-1.4-4.6-1.2-1.6.2-3,.8-4.2,1.9-.6.5-1,1-1.5,1.6-.6.9-1.1,1.7-1.5,2.7h0ZM294.1,249.5c.4-12.3-3.7-20-9.6-23.4-3.8-2.1-8.2-2.7-12.4-1.5-4.4,1.1-8.8,3.9-12.3,8.1-8.1,9.5-12.1,26.6-3.7,49.9l.5,1.4c.7,2,1,3,1.6,3.5.5.5,1.5.8,3.5,1.4l1.5.4c26.1,7.9,43.1,5.1,51.9-1.5,2.9-2.1,5.2-5.1,6.3-8.5,1-3.1.9-6.3-.3-9.3-2.3-6.2-9-11.5-19.5-13.1-1.5-.2-3-.4-4.5-.4-1.3,0-2,0-2.6-.6-.7-.7-.6-1.5-.5-3.4,0-.8.1-1.8.2-3.1h0ZM285.7,224.3c6.5,3.8,11.1,12,10.6,25.3,0,1.4-.1,2.4-.2,3.2,0,1.2-.2,1.7-.2,1.7s.4,0,1.1,0c1.6,0,3.2.2,4.8.4,11.4,1.8,18.6,7.7,21.2,14.5,1.3,3.5,1.5,7.3.3,10.8-1.3,3.9-3.8,7.2-7.1,9.6-9.3,6.9-26.9,9.9-53.8,1.8l-1.5-.4c-2.3-.7-3.4-1-4.3-1.9s-1.3-2-2.1-4.4l-.5-1.3c-8.7-24.2-4.4-42,4.1-52.1,3.5-4.3,8.2-7.4,13.5-8.8,4.9-1.2,9.9-.7,14,1.7h0ZM340.9,325.1c-8.4-9.1-16.6-11.6-23.2-9.9-4.2,1.1-7.7,3.9-9.9,7.6-2.3,3.9-3.5,8.9-3.1,14.4.9,12.4,10,27.4,32.4,38.2l1.3.6c1.9.9,2.8,1.4,3.6,1.4.7,0,1.6-.5,3.4-1.4l1.4-.7c24.2-12.7,34.3-26.6,36-37.4.6-3.6.1-7.2-1.5-10.5-1.5-2.9-3.8-5.1-6.8-6.5-6-2.7-14.4-1.9-23.1,4.3-1.2.9-2.4,1.9-3.5,2.9-.9.9-1.4,1.3-2.3,1.3h0c-1,0-1.5-.6-2.7-2.1-.5-.6-1.1-1.4-2-2.3h0ZM317.2,313c7.2-1.9,16.3.8,25.3,10.6.9,1,1.6,1.7,2.1,2.3.7.9,1,1.3,1.1,1.3s.3-.3.8-.8c1.2-1.1,2.4-2.1,3.7-3.1,9.4-6.8,18.7-7.6,25.3-4.6,3.4,1.5,6.1,4.2,7.8,7.5,1.8,3.7,2.3,7.8,1.7,11.8-1.7,11.4-12.2,26-37.1,39l-1.4.7c-2.1,1.1-3.2,1.7-4.4,1.7-1.3,0-2.4-.5-4.6-1.6l-1.3-.6c-23.2-11.2-32.6-26.9-33.6-40-.5-6,.8-11.5,3.4-15.7,2.4-4.2,6.5-7.4,11.2-8.6h0ZM367.2,229.7c1,.9,2.1,0,3.3-.8l.5-.4c4-2.9,8.2-5.5,12.6-7.9,4.3-2.4,8.7-4.7,13.1-7,.5-.2.9-.5,1.2-.9.2-.5.2-1,0-1.5v-.6c-.2-.8-.3-1.7-.2-2.5.5-8.4,5.3-13.7,11-15.9,2.7-1.1,5.6-1.4,8.4-.9,2.8.4,5.3,1.8,7.2,3.8,3.3,3.6,4.6,9.8,1.5,18.4,0,.3-.3.2-.2.3,0,0,0,0,.3,0h0c1.1.2,2.3.4,3.4.7,5,1.2,8.9,5.1,10.2,10,.6,2.3.8,4.6.4,6.9-.4,2.3-1.3,4.6-2.6,6.5-2.8,3.9-7.7,6.6-14.7,6.2h0c-1.4-.1-2.7-.4-4-1-1.3-.6-2.5-1.4-3.4-2.4-.2-.2-.3-.3-.5-.4-.1,0-.3-.2-.5-.2h0c-.4-.1-4.9,2.1-10.3,5-8.3,4.4-18.4,10.2-20.2,11.4h0c0,.2,0,.4,0,.5.5,1.6.7,3.3.7,4.9,0,1.7-.4,3.3-1.1,4.8-2.1,5.1-6.8,8.6-12.2,9.3-2.3.3-4.6,0-6.8-.6-2.2-.7-4.2-1.9-5.8-3.5-3.3-3.4-5.1-8.7-3.3-15.8.1-.5.2-.7.2-.7s-.3,0-.8,0c-1.8-.2-3.5-.8-5.1-1.6-1.6-.9-3-2.1-4.1-3.6-4-5-4.6-10.8-2.9-15.6.8-2.2,2-4.1,3.6-5.7,1.6-1.6,3.6-2.8,5.8-3.4,4.5-1.3,9.9-.2,15.3,4.6h0ZM371.7,230.6c-1.9,1.4-3.7,2.7-6,.7-4.8-4.2-9.5-5.2-13.3-4.1-1.8.5-3.5,1.5-4.9,2.9-1.4,1.4-2.5,3-3.1,4.9-1.6,4.7-.6,9.8,2.6,13.5,1,1.2,2.2,2.3,3.5,3,1.3.8,2.8,1.2,4.3,1.4,1.1.1,1.8.3,2.3.9.5.6.4,1.3.2,2.5-1.5,6.3,0,10.9,2.7,13.7,1.4,1.4,3.1,2.4,4.9,3,1.9.6,3.9.8,5.9.5,4.7-.6,8.7-3.6,10.5-8,.5-1.3.9-2.7.9-4,0-1.4-.2-2.8-.6-4.2-.2-.5-.2-1-.1-1.5,0-.6.4-1.1.9-1.4,1.9-1.3,12.1-7.2,20.5-11.6,5.8-3.1,10.8-5.4,11.8-5.2.4.1.7.3,1,.5.3.2.6.5.9.8.8.8,1.7,1.5,2.8,1.9,1.1.5,2.2.7,3.3.8,6.2.4,10.4-1.9,12.8-5.3,1.2-1.7,1.9-3.6,2.3-5.6.3-2,.2-4.1-.4-6-1.1-4.2-4.4-7.4-8.7-8.5-1.1-.3-2.1-.5-3.2-.6h0c-.7,0-1.4-.4-1.8-1-.3-.6-.3-1.2,0-2.1,2.8-7.8,1.8-13.1-1-16.2-1.6-1.7-3.7-2.8-6-3.1-2.5-.4-5-.1-7.3.8-5,1.9-9.2,6.6-9.6,14,0,.7,0,1.4.2,2.1v.6c.3,1,.1,1.9-.3,2.8-.5.8-1.2,1.5-2.1,1.8-4.3,2.2-8.7,4.5-13,6.9-4.3,2.4-8.4,5-12.4,7.8l-.5.4h0ZM244.9,140.1c-.6,1.2.5,2.1,1.7,2.9l.5.4c3.9,3.1,7.6,6.4,11.1,9.9,3.5,3.4,6.9,7,10.3,10.6.3.4.7.7,1.2.9.5,0,1,0,1.5-.3l.6-.2c.8-.4,1.6-.6,2.4-.8,8.1-1.9,14.6,1.3,18.4,6.1,1.8,2.3,2.9,5,3.2,7.9.4,2.8-.2,5.6-1.6,8-2.6,4.2-8.1,7.1-17.3,6.5-.3,0-.2-.2-.3-.1,0,0,.1,0,.2.3h0c.1,1.1.3,2.3.3,3.5.2,5.1-2.4,9.9-6.8,12.6-2,1.3-4.2,2.1-6.6,2.3-2.4.3-4.8,0-7-.7-4.6-1.6-8.5-5.6-10-12.5h0c-.3-1.4-.4-2.8-.2-4.1.2-1.4.6-2.7,1.3-4,.1-.2.2-.4.3-.7,0-.2,0-.3,0-.5,0-.4-3.4-4.1-7.7-8.5-6.5-6.7-14.9-14.8-16.6-16.2h0c-.1,0-.3,0-.4.2-1.4.9-2.9,1.6-4.6,2-1.6.4-3.3.5-4.9.3-5.4-.6-10.2-4.1-12.3-9.1-.9-2.1-1.4-4.4-1.3-6.7,0-2.3.6-4.6,1.8-6.6,2.3-4.1,6.9-7.3,14.3-7.6.5,0,.7,0,.7,0,0,0,0-.3-.1-.8-.3-1.8-.3-3.6.2-5.3.4-1.8,1.2-3.5,2.3-5,3.7-5.3,9.1-7.5,14.2-7.2,2.3.1,4.5.8,6.5,1.9,2,1.1,3.7,2.7,4.9,4.6,2.5,3.9,3,9.4-.1,16h0ZM245.2,144.8c-1.9-1.4-3.7-2.8-2.3-5.6,2.7-5.8,2.3-10.6.3-13.9-1-1.6-2.4-2.9-4.1-3.9-1.7-1-3.6-1.5-5.6-1.6-4.4-.3-9.1,1.6-12.3,6.2-.9,1.3-1.6,2.7-1.9,4.2-.3,1.5-.4,3-.1,4.5.2,1.1.2,1.9-.3,2.4-.5.6-1.1.8-2.3.8-6.4.3-10.5,2.9-12.4,6.5-.9,1.7-1.4,3.6-1.5,5.5,0,2,.3,3.9,1.1,5.8,1.8,4.3,5.9,7.3,10.5,7.8,1.4.2,2.8,0,4.2-.2,1.4-.4,2.7-.9,3.9-1.7.4-.3.9-.5,1.4-.6.6,0,1.2.1,1.6.5,1.8,1.4,10.3,9.6,16.8,16.4,4.6,4.7,8.2,8.9,8.3,9.9,0,.4,0,.8-.2,1.1-.1.4-.3.7-.5,1.1-.6,1-.9,2.1-1.1,3.2-.1,1.1-.1,2.3.1,3.4,1.3,6,4.7,9.5,8.6,10.9,1.9.7,4,.9,6,.6,2-.3,4-.9,5.7-2,3.7-2.3,5.9-6.4,5.7-10.7,0-1-.2-2.1-.3-3.2h0c-.1-.9,0-1.6.4-2.1s1.1-.6,2-.6c8.3.6,13.1-1.9,15.3-5.5,1.2-2,1.6-4.3,1.3-6.6-.3-2.5-1.3-4.8-2.8-6.8-3.2-4.2-8.9-7-16.1-5.3-.7.2-1.4.4-2,.7l-.6.2c-1.7,1.1-4,.6-5.1-1.1-3.3-3.5-6.7-7-10.3-10.5-3.5-3.4-7.1-6.7-10.9-9.7l-.5-.4h0ZM107.6,292.3c-.1,1.3,1.2,1.8,2.5,2.2l.6.2c4.7,1.6,9.3,3.5,13.8,5.5,4.6,2.1,9,4.3,13.3,6.5.4.3.9.5,1.5.5.5-.1.9-.4,1.3-.8l.4-.4c.6-.6,1.3-1.1,2-1.6,7-4.5,14.3-3.7,19.3-.4,2.4,1.6,4.4,3.7,5.7,6.3,1.3,2.5,1.7,5.3,1.1,8.1-1,4.8-5.2,9.5-14.1,11.9-.3,0-.3-.1-.3,0,0,0,.1,0,.2.2h0c.5,1,1,2.1,1.5,3.2,1.9,4.7,1.1,10.2-2.1,14.1-1.5,1.8-3.3,3.4-5.4,4.4-2.1,1.1-4.5,1.7-6.8,1.7-4.8,0-9.9-2.4-13.6-8.4h0c-.7-1.2-1.3-2.5-1.6-3.9-.3-1.4-.3-2.8,0-4.2,0-.2,0-.5,0-.7,0-.2,0-.3,0-.5-.1-.4-4.6-2.7-10-5.4-8.4-4.1-19-9-21.1-9.7h0c-.1,0-.2.2-.3.3-1,1.4-2.2,2.5-3.6,3.5-1.4.9-2.9,1.6-4.5,1.9-5.3,1.3-10.9-.4-14.6-4.5-1.6-1.7-2.8-3.7-3.5-5.8-.7-2.2-.9-4.5-.5-6.8.8-4.7,4.1-9.2,10.9-11.9.5-.2.6-.2.7-.2,0,0-.1-.2-.4-.7-.9-1.6-1.4-3.3-1.6-5.1-.2-1.8,0-3.7.5-5.4,1.7-6.2,6.1-10.1,11-11.5,2.2-.7,4.5-.8,6.8-.4,2.3.4,4.4,1.3,6.2,2.7,3.6,2.9,6,7.9,5.3,15.1h0ZM109.5,296.6c-2.2-.7-4.4-1.4-4.1-4.5.6-6.4-1.3-10.7-4.4-13.2-1.5-1.2-3.3-2-5.2-2.3-1.9-.3-3.9-.2-5.8.4-4.2,1.2-8,4.6-9.5,10-.4,1.5-.5,3.1-.4,4.6.2,1.5.6,3,1.4,4.3.6,1,.8,1.7.6,2.4-.2.7-.8,1.1-1.9,1.6-6,2.4-8.9,6.3-9.6,10.2-.3,1.9-.1,3.9.5,5.7.6,1.9,1.6,3.6,3,5,3.2,3.5,8,4.9,12.6,3.8,1.4-.3,2.7-.8,3.8-1.6,1.2-.8,2.2-1.8,3.1-2.9.3-.4.7-.8,1.1-1,.5-.3,1.2-.3,1.7,0,2.1.7,12.9,5.6,21.4,9.8,5.9,2.9,10.8,5.6,11.1,6.6.1.4.2.7.2,1.1,0,.4,0,.8,0,1.2-.2,1.1-.2,2.3,0,3.4.2,1.1.7,2.2,1.3,3.2,3.3,5.2,7.6,7.3,11.8,7.3,2,0,4-.5,5.9-1.4,1.8-.9,3.4-2.2,4.7-3.8,2.8-3.4,3.4-8,1.8-12-.4-1-.9-2-1.4-3h0c-.4-.8-.6-1.5-.3-2.1.3-.6.8-.9,1.7-1.2,7.9-2.3,11.7-6.2,12.5-10.3.4-2.3,0-4.6-1-6.7-1.1-2.2-2.8-4.1-5-5.4-4.5-2.9-10.8-3.6-17,.4-.6.4-1.1.9-1.7,1.4l-.5.4c-.7.7-1.5,1.2-2.5,1.4-1,0-1.9-.2-2.7-.7-4.4-2.2-8.8-4.5-13.2-6.5-4.4-2.1-8.9-3.9-13.5-5.4l-.6-.2h0ZM154.7,127.2c.6-12.3-3.4-20-9.2-23.5-3.7-2.2-8.2-2.8-12.4-1.7-4.9,1.3-9.2,4.1-12.5,7.9-8.2,9.4-12.5,26.4-4.5,49.9l.5,1.4c.7,2,1,3,1.5,3.5.5.5,1.5.8,3.4,1.4l1.5.5c26,8.3,43,5.8,51.9-.6,3-2.1,5.2-5,6.5-8.4,1-3,1-6.3-.1-9.3-2.2-6.2-8.8-11.6-19.3-13.4-1.5-.3-3-.4-4.5-.5-1.3,0-2,0-2.5-.7-.7-.7-.6-1.5-.5-3.4,0-.8.2-1.9.2-3.1h0ZM146.7,101.8c6.4,3.8,10.9,12.2,10.2,25.5,0,1.4-.2,2.4-.2,3.1-.1,1.2-.2,1.7-.2,1.7,0,0,.4,0,1.1,0,1.6,0,3.2.2,4.8.5,11.4,1.9,18.5,8,21,14.8,1.3,3.5,1.3,7.3.1,10.8-1.4,3.8-3.9,7.1-7.2,9.5-9.4,6.8-27.1,9.5-53.9.9l-1.5-.5c-2.3-.7-3.4-1.1-4.3-1.9-.9-.9-1.3-2.1-2.1-4.4l-.5-1.4c-8.3-24.3-3.7-42.1,4.9-52,3.9-4.5,8.7-7.4,13.6-8.6,4.7-1.2,9.8-.5,14,1.9h0ZM42.4,209.9c.8,1.1,2.1.6,3.4,0l.6-.3c4.6-1.9,9.3-3.4,14-4.8,4.8-1.4,9.6-2.6,14.3-3.8,1,0,1.9-.8,1.9-1.8,0,0,0-.2,0-.3v-.6c.1-.8.3-1.7.5-2.5,2.3-8,8.4-12.1,14.4-12.9,2.9-.4,5.8,0,8.4,1.1,2.6,1,4.8,2.9,6.2,5.3,2.4,4.3,2.2,10.6-2.8,18.2-.1.2-.3,0-.3.2,0,0,0,0,.3,0h0c1,.5,2.1.9,3.2,1.4,4.6,2.3,7.5,7,7.6,12.1.1,2.3-.3,4.7-1.2,6.8-.9,2.2-2.3,4.2-4.1,5.7-3.7,3.2-9,4.7-15.8,2.6h0c-1.3-.4-2.6-1.1-3.7-1.9-1.1-.9-2.1-1.9-2.8-3.1-.1-.2-.3-.4-.4-.6-.1-.1-.3-.2-.4-.3-.4-.2-5.3.9-11.2,2.5-9.1,2.3-20.3,5.6-22.3,6.5h0c0,.2,0,.3,0,.5.1,1.7,0,3.4-.5,5-.5,1.6-1.2,3.1-2.2,4.4-3.2,4.5-8.6,6.8-14,6.2-2.3-.2-4.5-1-6.5-2.1-2-1.2-3.6-2.8-4.8-4.8-2.4-4.1-2.9-9.6.4-16.1.2-.4.4-.6.4-.6,0,0-.3,0-.7-.2-1.7-.6-3.3-1.6-4.6-2.8-1.3-1.3-2.4-2.8-3.2-4.4-2.8-5.8-2-11.6.8-15.9,1.2-1.9,2.9-3.5,4.8-4.7,1.9-1.2,4.2-1.9,6.4-2,4.6-.2,9.7,2.1,13.8,8h0ZM46.6,211.9c-2.1.9-4.2,1.8-6-.7-3.7-5.2-8-7.2-12-7.1-1.9,0-3.8.7-5.4,1.7-1.7,1-3.1,2.4-4.1,4.1-2.4,3.7-3,8.7-.6,13.8.7,1.4,1.6,2.7,2.7,3.8,1.1,1,2.4,1.8,3.8,2.3,1.1.4,1.7.7,2,1.4.3.7,0,1.4-.4,2.4-2.9,5.7-2.6,10.6-.5,14,1,1.7,2.4,3,4.1,4,1.7,1,3.6,1.6,5.6,1.8,4.7.5,9.3-1.5,12-5.3.8-1.1,1.4-2.4,1.8-3.7.4-1.4.5-2.8.4-4.2,0-.5,0-1,.2-1.5.2-.6.7-1,1.3-1.2,2.1-.8,13.4-4.2,22.6-6.6,6.4-1.6,11.8-2.8,12.7-2.3.3.2.6.4.9.7.3.3.5.6.7.9.6,1,1.3,1.8,2.3,2.5.9.7,1.9,1.2,3,1.5,5.9,1.8,10.6.6,13.7-2.1,1.5-1.3,2.7-3,3.5-4.9.8-1.9,1.1-3.9,1-6-.1-4.3-2.6-8.3-6.5-10.3-.9-.5-2-.9-3-1.3h0c-.9-.4-1.4-.7-1.6-1.4-.2-.7,0-1.2.5-2,4.5-6.9,4.8-12.3,2.7-16-1.2-2-2.9-3.6-5.1-4.4-2.3-.9-4.8-1.3-7.3-.9-5.3.7-10.5,4.3-12.6,11.4-.2.7-.3,1.4-.3,2.1v.6c0,2-1.5,3.7-3.6,3.9-4.8,1.2-9.6,2.4-14.2,3.8-4.7,1.3-9.3,2.9-13.8,4.7l-.6.3h0ZM374.6,416c-1.5,1.4-2.5,3.1-3.1,5.1h0c-.4,1.4-.7,2.8-.8,4.2,0,1.5,0,2.9.3,4.3,0,.3.1.7.2,1,.7,2.5,2.3,4.7,4.4,6.1,2.2,1.5,5,2.1,7.7,1.6.4,0,.7-.1,1.1-.3,1.2-.3,2.3-.5,3.5-.7,1.1,0,2.3-.1,3.5-.1,2,0,4.1.3,6,1,1.9.7,3.6,1.7,5.1,3l1.4,1.2c.7.6,1.5,1.2,2.3,2,.9.9,1.9,1.6,3.1,2.2,1.1.6,2.3.9,3.5,1,1,0,1.9,0,2.9,0,.9,0,1.7-.3,2.5-.7,1.9-.9,3.7-2.2,5-3.9,1.4-1.7,2.4-3.7,2.9-5.8.4-1.4.5-2.9.4-4.4-.2-1.5-.6-3-1.2-4.4h0c-.7-1.7-1.4-3.3-2-5-.6-1.6-.9-3.3-1.1-4.9-.2-1.6-.2-3.3-.2-4.9,0-2.6-.5-5.2-1.6-7.6-1.2-2.4-2.8-4.6-4.8-6.3-1.7-1.6-3.9-2.7-6.2-3.2-2.3-.4-4.7,0-6.9.8-1.5.6-2.9,1.3-4.2,2.3-1.3.9-2.5,2-3.5,3.1-.3.3-.6.7-1.1,1.2-.3.4-.7.8-1.1,1.3-1.3,1.6-2.8,2.9-4.5,4.1-1.7,1.1-3.5,2-5.4,2.6l-.8.3c-.6.2-1.2.4-1.7.6-1.9.7-3.7,1.8-5.2,3.2h0ZM451.2,411.1c-.4,1-.9,1.9-1.5,2.7-.6.8-1.2,1.6-1.9,2.3-1.1,1.2-2.4,2.3-3.7,3.2-1.3,1-2.8,1.8-4.3,2.4-2,.9-4.3,1-6.4.3-2.1-.8-3.8-2.3-4.9-4.2-1-1.7-1.6-3.6-1.7-5.6,0-2,.5-4,1.6-5.7,1-1.7,2.2-3.3,3.6-4.8,1.4-1.5,3-2.7,4.7-3.7.8-.4,1.6-.8,2.4-1.1.8-.3,1.6-.5,2.4-.7,0,0,.1,0,.2,0,2.2-.4,4.6,0,6.4,1.4,1.9,1.3,3.1,3.3,3.6,5.6v.2c.3,1.3.3,2.5.2,3.8-.1,1.3-.4,2.5-.7,3.8h0s0,0,0,0ZM447.9,412.6c.5-.7.9-1.4,1.2-2.2.4-1.1.6-2.1.7-3.3,0-1.1,0-2.2-.2-3.3v-.2c-.3-1.7-1.3-3.2-2.7-4.2-1.4-1-3.1-1.3-4.8-1h-.2c-.7.2-1.4.4-2.1.7-.7.3-1.4.6-2.1,1-1.6.9-3,2-4.2,3.3-1.3,1.3-2.4,2.8-3.3,4.4-.9,1.3-1.3,2.9-1.3,4.5,0,1.6.6,3.2,1.4,4.5,1.6,3.2,5.4,4.5,8.6,2.9,1.4-.6,2.7-1.3,3.9-2.2,1.2-.9,2.4-1.9,3.4-3,.6-.6,1.2-1.3,1.7-2h0ZM410.1,382c-.2,1-.5,2-.8,2.9-.4.9-.9,1.8-1.4,2.6-.5.7-1.1,1.3-1.7,1.9-.7.6-1.4,1.1-2.2,1.5-.7.4-1.5.7-2.4.9-2.2.5-4.4.3-6.5-.4-3.2-1.2-5.5-3.9-6.3-7.2-.7-3-.8-6.1-.2-9.2.7-3,1.9-5.9,3.8-8.3,1.1-1.6,2.7-2.8,4.5-3.5,1.9-.7,3.9-.8,5.8-.4,1.8.3,3.5,1,4.9,2.2,1.3,1.1,2.3,2.6,2.8,4.2.3,1,.5,1.9.6,2.9.1,1,.1,2.1,0,3.1-.2,2-.5,4-.8,6v.7c-.1,0-.1,0-.1,0ZM407.3,384.1c.3-.8.6-1.6.7-2.5v-.7c.5-1.9.8-3.9.9-5.8,0-.9,0-1.8,0-2.7,0-.8-.3-1.7-.5-2.5-.4-1.3-1.1-2.4-2.1-3.2-1.1-.9-2.5-1.5-3.9-1.7-1.5-.3-3.1-.2-4.6.3-1.4.5-2.6,1.5-3.5,2.7-3.4,4.5-4.6,10.3-3.3,15.7.2.7.4,1.4.8,2.1.9,1.6,2.4,2.9,4.1,3.5,1.7.6,3.5.7,5.2.4.6-.2,1.2-.4,1.8-.7.6-.3,1.2-.7,1.7-1.2.5-.5,1-1,1.4-1.5.5-.7.9-1.4,1.2-2.1h0ZM415.7,382.1c.7-1.9,1.7-3.7,2.8-5.3,1.1-1.7,2.6-3.2,4.2-4.5,1.8-1.4,4.1-2.2,6.4-2.2,2.3,0,4.6.7,6.6,2,1.2.8,2.2,1.9,2.8,3.2.6,1.2,1,2.5,1.1,3.9.2,1.4.1,2.8-.1,4.1-.3,1.3-.7,2.6-1.3,3.8-.7,1.6-1.6,3.2-2.6,4.7-1,1.5-2.2,2.9-3.5,4.1-1.5,1.5-3.4,2.5-5.5,2.9-2.1.3-4.2,0-6.1-1-2-1-3.6-2.7-4.7-4.6-1-2-1.4-4.2-1.1-6.4.2-1.1.4-2.1.7-3l.3-1.4h0c0,0,0,0,0,0ZM420.3,378c-1,1.5-1.8,3.2-2.5,4.9l-.3,1.3c-.3,1-.5,1.9-.7,2.8-.3,1.7,0,3.5.9,5,.8,1.6,2.1,2.9,3.7,3.7,1.5.8,3.1,1.1,4.8.8,1.7-.3,3.2-1.1,4.4-2.3,1.2-1.2,2.2-2.4,3.2-3.8.9-1.4,1.7-2.8,2.4-4.3.5-1.1.9-2.2,1.1-3.3.2-1.1.3-2.3.1-3.4-.1-1.1-.4-2.2-.9-3.2-.4-.9-1.1-1.7-2-2.3-1.6-1.1-3.5-1.6-5.4-1.7-1.8,0-3.6.7-5.1,1.8-1.4,1.1-2.7,2.4-3.7,3.9h0ZM365.1,385.4c.1-.3.3-.6.5-.9.5-1,1-2,1.6-2.9.5-.8,1.1-1.5,1.9-2.1,1.5-1.3,3.4-2.1,5.4-2.4,2.1-.2,4.3.3,6.1,1.6.8.6,1.6,1.2,2.2,2,.5.6.9,1.2,1.3,1.8.4.6.8,1.3,1.1,2,1,2.4,1.6,4.9,1.8,7.4.3,2.6,0,5.2-.7,7.7-1.1,3.7-3,6.2-5.4,7.5-2.6,1.5-5.8,1.6-9.2.7-1.3-.3-2.4-1-3.4-1.9-1-1-1.8-2.2-2.4-3.5-1.2-2.6-1.9-5.3-2-8.2,0-2.9.3-5.9,1.2-8.7h0c0,0,0-.2,0-.2ZM367.5,385.5l-.4.9c-.8,2.5-1.2,5.2-1.1,7.9.1,2.5.7,5.1,1.8,7.4.5,1,1.1,2,1.9,2.8.7.7,1.5,1.1,2.5,1.4,2.9.7,5.5.7,7.6-.5,1.9-1.1,3.4-3.1,4.4-6.3.7-2.2.9-4.6.7-6.9-.2-2.3-.8-4.6-1.7-6.8-.2-.6-.5-1.1-.8-1.6-.3-.5-.7-1.1-1.2-1.6-.5-.6-1.1-1.1-1.8-1.6-1.3-.9-3-1.4-4.6-1.2-1.6.2-3,.8-4.2,1.9-.6.5-1,1-1.5,1.6-.5.9-1,1.7-1.5,2.7h0Z"></path></svg>